<!-- Created with Inkscape (http://www.inkscape.org/) --><svg xmlns="http://www.w3.org/2000/svg" xmlns:cc="http://creativecommons.org/ns#" xmlns:rdf="http://www.w3.org/1999/02/22-rdf-syntax-ns#" xmlns:dc="http://purl.org/dc/elements/1.1/" width="395.64" height="82.723" version="1.1" viewBox="0 0 261.7 54.718">
 <title>Zacuto's Correspondence Project</title>
 <g transform="translate(-11.931 -24.029)" fill="#fff">
  <path d="m60.511 24.03c-0.4608-0.0158-1.2305 0.40263-1.5873 0.71568-0.12762 0.11198-0.20828 0.26787-0.31251 0.40189-0.08894 0.1969-0.16237 0.41664-0.19271 0.63137-0.01732 0.12254-2e-3 0.24854-0.02473 0.3702-0.03268 0.17549-0.17804 0.40853-0.2561 0.55276-0.22471 0.52674-0.06566 0.19223-0.36196 0.72075-0.06802 0.12134-0.12101 0.25212-0.20032 0.36639-0.19536 0.28154-0.48923 0.48728-0.60601 0.82344-0.02631 0.09586-0.06689 0.18917-0.07924 0.28779-0.01816 0.14504 0.04195 0.3022-0.01202 0.43803-0.10072 0.25337-0.4677 0.33016-0.57685 0.58002-0.10626 0.24324 0.13957 0.55772-0.05325 0.79428-0.32626 0.1731-0.42518 0.18193-0.65926 0.50269-0.28293 0.38771-0.10162 0.34749-0.33977 0.76068-0.45791 0.79449-0.1268-0.13421-0.38732 0.7385-0.24603 0.60521-0.22925 0.27653 0.09826 0.98064-0.05053 0.23215-0.96851 0.19786-1.0073 0.22504-0.23341 0.16363-0.04281 0.97923-0.02916 1.0814-0.43202 0.14775-0.6642 0.15978-0.97621 0.50268-0.10517 0.11558-0.16644 0.26485-0.24152 0.40189-0.07414 0.13531-0.15628 0.26852-0.20602 0.41457-0.1049 0.30804-0.07725 0.65259-0.22567 0.95022-0.20441 0.90088 0.10582 0.12395-0.55783 0.64531-0.18596 0.14609-0.18899 0.49249-0.29603 0.6713-0.07741 0.12931-0.19932 0.2259-0.2973 0.34041-0.09453 0.11047-0.1867 0.22271-0.28018 0.33406-0.27679 0.33677-0.34132 0.35442-0.48684 0.76956-0.05391 0.15378-0.07979 0.31588-0.11854 0.47416-0.04049 0.1654 2e-3 0.37668-0.11918 0.49634-0.14237 0.14064-0.40392 0.07517-0.57115 0.1851-0.11102 0.07298-0.14482 0.2228-0.21743 0.33406-0.41522 0.65925 0.01731 0.02255-0.51473 0.64975-0.13263 0.15636-0.28351 0.36764-0.42091 0.58636-0.08821 0.01337-0.17261 0.05447-0.2618 0.05769-0.1231 0.0044-0.24512-0.02484-0.36766-0.03739-0.39581 0.03283-0.46125 0.53388-0.8862 0.49761-0.1584-0.01355-0.28132-0.1593-0.43739-0.18954-0.2-0.03877-0.65013 0.0654-0.84119 0.10142-0.53225 0.30403-1.1267 0.46228-1.6963 0.67638-0.59676 0.22432-0.08492 0.08474-0.76258 0.23708-0.30112 0.03685-0.48884 0.33353-0.76892 0.4114-0.14 0.03891-0.2908 0.02802-0.43549 0.01458-0.13667-0.01266-0.26402-0.09398-0.40126-0.09192-0.11638 0.0014-0.21966 0.08126-0.33407 0.10269-0.11205 0.021-0.22731 0.01556-0.34104 0.02346-0.51986-0.10043-0.09717-0.04109-0.54325-0.05262-0.06641-0.0014-0.13452-0.03538-0.19841-0.01711-0.20466 0.05837-0.34218 0.32166-0.46465 0.44754-0.0932 0.09579-0.20106 0.17581-0.30174 0.2637-0.10444-0.03165-0.23122-0.02299-0.31315-0.09508-0.1078-0.09486-0.12207-0.26411-0.21743-0.37147-0.06983-0.07863-0.63664-0.38622-0.74674-0.38098-0.06674 0.0034-0.11118 0.07379-0.16672 0.11093-0.22834 0.23974-0.31045 0.4819-0.67891 0.40506-0.09992-0.02086-0.17027-0.11292-0.25927-0.16291-0.0919-0.05162-0.18263-0.10831-0.28272-0.14136-0.85201-0.28131 0.06992 0.15455-0.71694-0.25039-0.51657-0.2227-0.74063-0.30333-1.2786-0.04627-0.18262 0.08727-0.31941 0.28533-0.5198 0.31378-0.3026 0.04293-0.77937-0.41733-0.95085-0.5534-0.35921-0.045-0.67182 0.17103-1.0155 0.20348-0.15978 0.01511-0.3195-0.03351-0.47986-0.03994-0.46246-0.0185-0.93134 0.01331-1.394 0.02091-0.4182-0.12806-0.60828 0.34993-0.94705 0.4095-0.24476 0.04303-0.75498-0.29473-0.97367-0.32139-0.14084-0.01718-0.27716 0.06074-0.41774 0.07988-0.1438 0.01958-0.2896 0.02407-0.43422 0.03614-0.14312-0.03822-0.28213-0.09663-0.42915-0.11474-0.14312-0.01761-0.28834 0.01672-0.43232 0.0089-0.47185-0.0259-0.28683-0.073-0.7759-0.16481-0.38656-0.07257-0.46234-0.03173-0.86654 0.01331-0.48961 0.22225-0.5177-0.49555-0.85006-0.53311-0.65614-0.07417-0.85912 1.6055-1.5023 0.7759-0.2141-0.27614-0.28305-0.63904-0.42471-0.95846-0.34822 0.0679-0.70713 0.07261-1.0554 0.14009-0.158 0.03062-0.30671 0.10888-0.46718 0.12108-0.24175 0.01835-0.59559-0.11378-0.82724-0.1496-0.13402-0.02076-0.27047-0.02086-0.4057-0.03106-0.11427 0.0025-0.6608 0.01013-0.7816 0.02789-0.12135 0.01786-0.23618 0.06761-0.35689 0.08938-0.11004 0.01987-0.2241 0.0121-0.33343 0.0355-0.11266 0.02409-0.21796 0.07574-0.32899 0.10649-0.10494 0.0291-0.21207 0.04861-0.31822 0.0729-0.10219-1.4e-4 -0.20514 0.0095-0.30681-6.39e-4 -0.09995-0.01011-0.19652-0.04246-0.2954-0.06022-0.22929-0.04117-0.45776-0.08973-0.68969-0.11157-0.11651-0.01099-0.54058-0.01598-0.67954-0.01838-0.4801 0.01453-0.92532 0.19332-1.3527 0.39746-0.33883 0.16183-0.23176 0.09519-0.4469 0.25483-0.29911 0.11481-0.60799 0.15559-0.85133 0.38541-0.23458 0.22154 0.0514 0.08807-0.21616 0.187-0.06817 0.08512-0.12445 0.18168-0.20475 0.25546-0.24501 0.22509-0.30753-0.01129-0.38351 0.49381-0.01661 0.11039 0.08367 0.21529 0.07353 0.32646-0.0048 0.05241-0.14896 0.07203-0.11283 0.1103 0.06909 0.07319 0.1938 0.05233 0.29096 0.07861 0.12009-0.24578 0.18523-0.19782 0.2282-0.02092 0.02213 0.03306 0.03295 0.06852 0.04437 0.10396l-0.02155-0.0114c0.0053 0.03418 0.0094 0.07779 0.01395 0.11727-5.89e-4 0.0013-0.0019 0.0024-0.0026 0.0038 7.36e-4 -0.0011 0.0018-0.0021 0.0026-0.0031 0.0551 0.48527 0.05613 1.3247 0.17686 1.6982 0.03089 0.09555 0.14954-0.13339 0.2244-0.20032 0.14664 0.01383 0.29372 0.01274 0.43993 0.01078 0.10407 0.01058 0.15767 0.01443 0.23391 0.02219 0.0012 0.0073 0.0012 0.01289 0.0026 0.02028 3e-3 0.01712 0.01814 3e-3 0.03487-0.01648 0.40395 0.03927 0.48641-0.01876 0.69095-0.37591 0.0025-4.73e-4 0.0051-1.39e-4 0.0076-6.37e-4 0.0021-4.35e-4 -0.0034-0.0033-0.0038-5e-3l0.0031-0.0057c0.14701 0.11555 0.22409 0.13945 0.1084 0.35308-0.01031 0.01903-0.05218-0.01981-0.06466-0.0019-0.02267 0.03209-0.01104 0.07836-0.01648 0.11727 0.03891-0.03082 0.07022-0.07493 0.11664-0.09255 0.06076-0.02306 0.12869-0.01868 0.19334-0.02536 0.01989-2e-3 0.04325 0.0091 0.06022-0.0012 0.03116-0.01948 0.04278-0.06166 0.07353-0.08177 0.15322-0.10024 0.33534-0.15137 0.4805-0.26624 0.25602-0.10055 0.50703-0.22912 0.74167-0.37337 0.45817-0.19762 0.88718-0.47869 1.4098-0.42535 0.10594 0.02405 0.2135 0.0427 0.31822 0.07164 0.11039 0.03047 0.2145 0.08178 0.32646 0.10586 0.10791 0.02321 0.22108 0.01548 0.32963 0.0355 0.11824 0.02179 0.23047 0.07154 0.34928 0.09001 0.09588 0.01492 0.65856 0.03226 0.74991 0.0355 0.12639-0.0071 0.25359-0.0047 0.37907-0.02155 0.22053-0.02939 0.53431-0.14656 0.76449-0.10966 0.14554 0.02336 0.27301 0.11262 0.4133 0.15784 0.29602 0.0954 0.60731 0.13964 0.89634 0.25927 0.18232-0.29061 0.29721-0.63714 0.54706-0.87225 0.72679-0.6839 0.68516 1.0195 1.2456 1.0846 0.34965 0.04058 0.5605-0.69301 1.0104-0.30617 0.39952 0.13314 0.4904 0.19765 0.92233 0.20222 0.14571 0.0014 0.28925-0.03946 0.43486-0.04501 0.45108-0.01712 0.8835 0.12942 1.3268-0.01268 0.1576 0.0263 0.31592 0.0487 0.47289 0.07861 0.17436 0.03322 0.34413 0.12441 0.52107 0.1103 0.25553-0.02036 0.69225-0.3715 0.97304-0.32266 0.33802 0.05881 0.52784 0.53556 0.94451 0.40824 0.45434 0.0074 0.91434 0.03846 1.3686 0.02472 0.15442-5e-3 0.30873-0.05146 0.46211-0.03296 0.31652 0.03812 0.59556 0.25553 0.92676 0.23644 0.12167-0.0946 0.60923-0.56068 0.86908-0.47479 0.16191 0.05351 0.22192 0.25959 0.34358 0.37907 0.39826 0.39113 0.4814 0.3021 1.0111 0.27892 1.1133-0.09423-0.17188-0.01395 0.79998 0.0026 0.13965 0.0025 0.27994-0.0081 0.41838-0.02663 0.19589-0.0262 0.45569-0.17874 0.63834 0.02345 0.10873 0.12037 0.14608 0.28887 0.21933 0.43359 0.11123 0.05867 0.21104 0.15017 0.33407 0.17623 0.08464 0.01791 0.17021-0.03058 0.25419-0.05135 0.06883-0.01703 0.62286-0.17738 0.66053-0.19968 0.89907-0.53212-0.01762-0.21388 0.73786-0.43739 0.11272 0.08611 0.22827 0.16858 0.33787 0.25863 0.11929 0.098 0.21663 0.22448 0.34801 0.30554 0.28043 0.17302 0.33742 0.10587 0.62376 0.06213 0.46923-0.07167 0.18029 6e-3 0.67194-0.17496 0.14895-0.02591 0.29668-0.06096 0.4469-0.07797 0.17123-0.01944 0.35129 0.01963 0.516-0.03106 0.16039-0.04935 0.28234-0.18279 0.43105-0.26053 0.13338-0.06973 0.26557-0.15256 0.4133-0.1813 0.32147-0.06253 0.66176 0.07145 0.98255-0.02663 1.4462-0.4429-0.57237 0.15892 1.0161-0.25736 0.08087-0.02119 0.15881-0.05228 0.23835-0.07797-0.05717 0.06036-0.11411 0.12058-0.15974 0.18954-0.2037 0.30783-0.29615 0.68155-0.54135 0.96607-0.51565 1.0426 0.04124 0.06937-0.71187 0.96797-0.48694 0.58101-0.74368 1.3479-1.3711 1.8155-0.10349 0.16901-0.293 0.4515-0.34484 0.64785-0.01444 0.0547 0.04329 0.11694 0.02028 0.16862-0.03712 0.08338-0.12656 0.13156-0.1851 0.20158-0.55654 0.6657 0.03747 0.0081-0.49254 0.58192-0.06307 0.07907-0.11662 0.16698-0.18954 0.23708-0.22692 0.21816-0.31913 0.18797-0.45768 0.43106-0.08058 0.14139-0.06282 0.25234-0.16798 0.38098-0.04258 0.05209-0.10523 0.08358-0.15784 0.12551-0.24845 0.38276 0.0087-0.04666-0.21299 0.46528-0.03232 0.07465-0.08001 0.14141-0.11981 0.21236-0.15704 0.27997-0.28774 0.56692-0.56608 0.75244-0.11253 0.04632-0.23506 0.07373-0.33787 0.13882-0.1339 0.08478-0.45646 0.42095-0.55466 0.54516-0.17983 0.22745-0.29843 0.50206-0.49381 0.7163-0.07732 0.08478-0.18049 0.14205-0.27068 0.213-0.59893 0.47328 0.14303-0.14622-0.43232 0.45767-0.07857 0.08247-0.19147 0.12842-0.2656 0.21489-0.08004 0.09336-0.11792 0.21681-0.19017 0.31632-0.20298 0.27957-0.32967 0.38288-0.57115 0.61552-0.2844 0.2703-0.546 0.56106-0.82978 0.83168-0.08917 0.08503-0.20046 0.14888-0.27385 0.24786-0.12982 0.1751-0.13166 0.42482-0.28462 0.58889l-0.28209 0.19271c-0.10204 0.04715-0.21274 0.07948-0.30618 0.142-0.29173 0.19517-0.30358 0.31132-0.50585 0.59967-0.29914 0.42644-0.27273 0.3726-0.62946 0.76702-0.17945 0.17591-0.50008 0.52991-0.75308 0.62883-0.14621 0.05717-0.32282 3e-3 -0.46655 0.06593-0.21698 0.09532-0.4949 0.56971-0.74927 0.67384-0.08268 0.0034-0.1689-0.01521-0.24786 0.0095-0.09533 0.02989-0.17244 0.10131-0.2599 0.1496-0.09393 0.05187-0.19986 0.08427-0.28399 0.15087-0.08534 0.06756-0.1184 0.19683-0.21616 0.24469-0.10379 0.05081-0.26607-0.05353-0.34548 0.03042-0.11151 0.11789-0.08497 0.31309-0.12742 0.46972-0.06507 0.11743-0.13017 0.23501-0.19524 0.35244-0.09736 0.06048-0.22605 0.08773-0.29223 0.1813-0.08995 0.12718-0.07157 0.30728-0.14897 0.44247-0.05606 0.09792-0.41755 0.38659-0.51663 0.42471-0.10473 0.04028-0.2227 0.02807-0.33407 0.04185-0.46499 0.25911-0.19535 0.18549-0.82851 0.13248-0.10107 0.04455-0.05226 0.21649-0.10333 0.31442-0.04575 0.08772-0.13642 0.14641-0.18256 0.23391-0.26263 0.49809 0.09567 0.32716-0.55023 0.4057-0.12039 0.07051-0.2448 0.13342-0.36069 0.21109-0.11426 0.07658-0.19197 0.23249-0.32836 0.25039-0.2149 0.02821-0.42234-0.10567-0.63834-0.12361-0.19536-0.01624-0.41733-0.07492-0.58763 0.02218-0.15345 0.08749-0.37883 0.83705-0.42218 0.96353-0.12811 0.07339-0.28278 0.11325-0.38414 0.2206-0.15577 0.16498-0.17266 0.63047-0.516 0.64785-0.23872 0.01207-0.44892-0.18521-0.68715-0.20475-0.18831-0.01545-0.40505 0.18721-0.53755 0.29032-0.11857 0.2742-0.22008 0.36256-0.53501 0.39302-0.09303 9e-3 -0.18859-0.02752-0.28018-0.0089-0.17419 0.03548-0.3031 0.20615-0.49318 0.20285-0.09334 0.01163-0.18646 0.02684-0.28018 0.03484-0.09676 0.0083-0.19722-0.01143-0.29096 0.01394-0.09632 0.0261-0.16779 0.12065-0.26624 0.13692-0.25115 0.04151-0.52893-0.18366-0.77907-0.03612-0.0032-4.91e-4 -0.0056-9.53e-4 -0.0089-2e-3 0.11049-0.04974 0.2337-0.10745 0.27131-0.15024 0.47604-0.54151-0.19208 0.26706 0.16857-0.24859 0.01612-0.02306-0.10997-0.5804-0.27847-0.8284l-0.38379-0.21996-0.80162-1.5403c-0.44052-0.33356-1.3347-0.56998-1.7779-0.39207-0.26601 0.27986-0.16715-0.03042-0.38922 0.24976-0.17389 0.21942-0.29648 0.59359-0.3721 0.86084-0.02889 0.04952-0.29039 0.49595-0.30554 0.53058-0.03381 0.07728-0.03092 0.16821-0.06909 0.24342-0.04579 0.09018-0.13398 0.15463-0.17876 0.24532-0.07243 0.14668-0.12307 0.45237-0.15467 0.61108-0.04189 0.18197-0.0097 0.36832-0.02726 0.55149-0.0071 0.0738-0.03437 0.14437-0.04247 0.21806-0.02561 0.23276 0.02255 0.2646-0.07353 0.50269-0.01992 0.52692 0.0662 0.98925 0.32836 1.458 0.1792 0.32038 0.56106 0.65969 0.82344 0.91598 0.59717 0.28814 0.42609 0.2506 0.98255 0.37971 0.16131 0.03744 0.33242 0.04161 0.48684 0.10143 0.15628 0.06055 0.2796 0.1872 0.43296 0.25482 0.36963 0.16301 0.50633 0.1429 0.8919 0.17306 0.55426 0.06782 0.48614 0.09946 1.0079 0.02218 0.17028-0.02522 0.33531-0.0882 0.50712-0.09888 0.17415-0.0108 0.34863 0.05135 0.52234 0.03484 0.13246-0.01256 0.82797-0.23544 0.95973-0.27638 0.27112-0.13041 0.60055-0.10387 0.87225-0.23327 0.2113-0.15482 0.42995-0.33419 0.6732-0.4412 0.12852-0.05653 0.26756-0.08457 0.39999-0.13122 0.17393-0.06126 0.34628-0.12855 0.51917-0.19271 0.19651-0.13155 0.68642-0.40532 0.76385-0.6732 0.06861-0.23734-0.08626-0.5062-0.0095-0.74104 0.10967-0.33558 0.58671-0.30753 0.80189-0.45324 0.1176-0.07964 0.18024-0.22023 0.27004-0.33027 0.06413-5e-3 0.86897-0.04352 0.94515-0.12298 0.16611-0.17326 0.13239-1.0292 0.19588-1.1721 0.06055-0.13624 0.23797-0.17974 0.34928-0.27892 0.10004-0.08915 0.18939-0.18973 0.28399-0.28462 0.25715-0.64145-0.02598-0.27168 0.54642-0.4526 0.10789-0.0341 0.19184-0.12256 0.2973-0.16355 0.11705-0.04548 0.29591 0.01094 0.36513-0.09381-0.01567-0.53415-0.11788-0.33706 0.19144-0.63771 0.05458-0.11317 0.0859-0.24098 0.16355-0.33977 0.05671-0.07213 0.46208-0.31858 0.53882-0.32773 0.14091-0.01678 0.28038 0.09513 0.41964 0.06783 0.1166-0.02286 0.19364-0.13823 0.29033-0.20728l0.38605-0.02787c0.14891 0.03597 0.30099 0.15444 0.4469 0.10777 0.11529-0.0369 0.09315-0.23497 0.18764-0.31061 0.07936-0.06354 0.20131-0.03754 0.2954-0.07606 0.06861-0.02807 0.12199-0.08432 0.18637-0.12107 0.3299-0.18838 0.09923 0.02237 0.40633-0.35498 0.27399-0.25336 0.7336-0.17905 1.0117-0.41711 0.12561-0.10753 0.15787-0.29673 0.27638-0.41204 0.19318-0.18794 0.70118-0.40074 0.92867-0.50776 0.6483-0.30051 0.37054-0.18298 1.0149-0.43993 0.38221-0.15242 0.53004-0.15994 0.82154-0.46719 0.11993-0.12641 0.2012-0.28469 0.30491-0.42471 0.08815-0.11904 0.18047-0.23495 0.27068-0.35245 0.18774-0.23085 0.49939-0.3081 0.70744-0.51156 0.08852-0.08657 0.13861-0.20546 0.21236-0.30491 0.2142-0.28885 0.45994-0.55328 0.68652-0.83232 0.19766-0.36297 0.56718-0.44666 0.84119-0.68842 0.09108-0.08036 0.14054-0.19925 0.22694-0.28462 0.6023-0.59512-0.04903 0.23423 0.516-0.54199 0.06898-0.10545 0.12293-0.22272 0.20729-0.31632 0.2582-0.28651 0.30712-0.1978 0.59143-0.43232 0.11905-0.09819 0.46988-0.4707 0.55023-0.61044 0.07628-0.13267 0.11404-0.28401 0.17115-0.42598 0.07603-0.10423 0.13995-0.21904 0.2282-0.31315 0.07983-0.08512 0.18432-0.14288 0.27194-0.21996 0.1639-0.14416 0.29684-0.32443 0.47352-0.4526 0.49028-0.35566-0.01378 0.16292 0.43676-0.35055 0.12359-0.4478 0.5939-0.6895 0.703-1.1423 0.14438-0.59922-0.23619 0.19643 0.11093-0.44373 0.1709-0.35344 0.01332-0.08706 0.22504-0.33407 0.05839-0.06812 0.10173-0.14918 0.16481-0.21299 0.1351-0.13667 0.45636-0.37826 0.59397-0.54135 0.09632-0.11416 0.17367-0.24298 0.26053-0.36449 0.15385-0.52396 0.49364-0.93899 0.80569-1.3737 0.12213-0.17013 0.2605-0.33088 0.36196-0.5141 0.55474-1.0017-0.10672-0.22211 0.64088-0.99333 0.19872-0.30692 0.50384-0.52349 0.72392-0.8114 0.09271-0.12128 0.13956-0.2739 0.23581-0.39238 0.09564-0.11774 0.22563-0.20328 0.33407-0.30935 0.34237-0.33487 0.2821-0.28101 0.55276-0.63961 0.14785-0.27859 0.24926-0.48057 0.41014-0.7461 0.09137-0.15082 0.21071-0.28629 0.28209-0.44753 0.07746-0.17502 0.06118-0.38782 0.16038-0.5515 0.09655-0.15932 0.28666-0.24075 0.40633-0.38351 6.86e-4 -8.33e-4 0.0012-0.0017 0.0019-0.0026 0.31899-0.01938 0.56937-0.02022 0.88493-0.10713 0.49358-0.13593 0.90833-0.52788 1.4485-0.49001 0.11264-0.01668 0.22407-0.05401 0.33787-0.05008 0.22747 0.0078 0.44574 0.10731 0.6732 0.11537 0.10922 0.0039 0.21808-0.02604 0.32709-0.01838 0.51956 0.03656 0.05305 0.10234 0.445 0.02599 0.08376-0.0288 0.16646-0.062 0.25166-0.08621 0.21838-0.06205 0.24567-0.02409 0.49-0.1103 0.10738-0.03788 0.20218-0.10719 0.30998-0.1439 0.34567-0.11771 0.32324-0.07419 0.67954-0.0089 0.72598 0.21184 0.01433 0.03478 0.76385 0.12868 0.21421 0.02684 0.58015 0.13823 0.79872 0.13629 0.10257-9.53e-4 0.62763-0.11524 0.73786-0.13819 0.10674 0.01232 0.21628 0.01164 0.32076 0.03677 0.96408 0.23182-0.36681 1.68e-4 0.5496 0.17242 0.26484 0.04978 0.2579 0.03108 0.52677 0.03677 0.10137 0.0025 0.20293 0.0067 0.30427 0.01015 0.2151 0.03361 0.42768 0.09484 0.64531 0.10079 0.10759 3e-3 0.21401-0.03516 0.32139-0.02789 0.29492 0.01985 0.57604 0.15643 0.87162 0.13312 0.03037 0.05105 0.04033 0.07762 0.0805 0.14136 0.3298 0.52311 0.41961 0.8084 0.26294 1.4334-0.08594 0.34279-0.25911 0.54534-0.52538 0.77769-0.15709 0.23376-0.4561 0.41988-0.47162 0.7011-0.05486 0.99368 0.90738 0.40376 0.24595 1.3901-0.15795 0.23554-0.44611 0.35039-0.65863 0.53818-0.62539 0.55263-0.46095 0.32483-0.66242 1.0497 0.13192 0.469 0.24703 0.56067 0.045 1.0288-0.07569 0.1754-0.24171 0.30193-0.31441 0.4786-0.0576 0.13996-0.03582 0.30136-0.06719 0.44943-0.06197 0.29268-0.1641 0.56142-0.26117 0.8431-0.02851 0.10547-0.05371 0.2118-0.08557 0.31632-0.0341 0.11182-0.0817 0.2193-0.1122 0.33216-0.06382 0.2361-0.08053 0.4605-0.14073 0.69729-0.27029 1.0632 0.02527-0.28483-0.18066 0.68588 0.05014 0.11358 0.05558 0.26145 0.15087 0.34104 0.16512 0.1379 0.39788 0.16612 0.58446 0.27321 0.15253 0.08754 0.64176 0.39894 0.70997 0.64215 0.02994 0.10669 0.02591 0.25916-0.06213 0.32646-0.19519 0.14923-0.46247 0.16736-0.69349 0.25103-0.46997 0.29949-0.44093 0.18026-0.64975 0.70426-0.05651 0.1418-0.06654 0.29914-0.12551 0.43993-0.06128 0.14627-0.17803 0.26632-0.23265 0.4152-0.14168 0.38628-0.06362 0.43478 0.04691 0.80315-0.22854 0.2664 0.39552 0.54354 0.26371 0.78667-0.08061 0.1487-0.32735 0.10656-0.46275 0.20792-0.19636 0.147-0.10039 0.56148-0.08431 0.74864-0.12478 0.12312-0.16101 0.31282-0.27765 0.44182-0.30978 0.34262-0.28474 0.1341-0.48431 0.58066-0.04843 0.10836-0.06393 0.22831-0.09698 0.3423-0.03518 0.12139-0.07185 0.24268-0.10776 0.36386-0.03636 0.34386-0.40591 0.66047-0.5198 0.95529-0.14596 0.37784-0.05009 0.37268-0.05895 0.7461-0.0025 0.11157-0.02488 0.22189-0.03739 0.3328-0.01771 0.03587-0.17312 0.37059-0.23581 0.44183-0.20294 0.23062-0.34946 0.18205-0.31314 0.54009 9.8e-5 0.07767 0.0025 0.15498 4.9e-4 0.23264-8e-3 0.35541-0.29153 0.50943-0.35815 0.84689-0.01379 0.06973-0.0039 0.14258-0.0057 0.21363-0.04294 0.09432-0.06682 0.20005-0.12932 0.28272-0.05901 0.07806-0.15085 0.1247-0.22631 0.187-0.07745 0.0986-0.15859 0.19377-0.23201 0.2954-0.36155 0.50053 0.06235-0.05251-0.25673 0.45134-0.04666 0.07369-0.10731 0.13794-0.16101 0.20666-0.20733 0.2289-0.29522 0.52602-0.43422 0.79428-0.04316 0.08329-0.10648 0.15537-0.14643 0.24025-0.03738 0.07943-0.22924 0.65195-0.24659 0.70299-0.21688 0.36162-0.08746 0.79092-0.16672 1.1822-0.0863 0.42608-0.12007 0.43156-0.31124 0.79491-0.26006 0.28092 0.02246 0.69443-0.1439 0.99776-0.04509 0.08221-0.15146 0.11162-0.2206 0.17496-0.19504 0.17867-0.20131 0.21077-0.34421 0.41711-0.12353 0.19587-0.08536 0.45175-0.19461 0.65228-0.02035 0.03734-0.06627 0.05301-0.09572 0.08368-0.05195 0.0541-0.07861 0.10254-0.11727 0.16418-0.01486 0.07162-0.05579 0.14254-0.04501 0.21489 0.01223 0.08214 0.07571 0.14826 0.1103 0.22377 0.0468 0.10216 0.09184 0.20508 0.13375 0.30934 0.09685 0.24093 0.19058 0.48291 0.26751 0.73089 0.19476 0.54481 0.32579 0.59167 0.84816 0.56354 0.57894 0.38083 0.49081 0.17322 0.94895-0.04185 0.0111-2.5e-4 0.01537-9.53e-4 0.02663-0.0014 0.04396-9.53e-4 0.08139-0.02154 0.11727-0.04754 0.07521-0.02302 0.0747-0.02821 0.27131-0.05895 0.06879-0.01762 0.13047-0.05878 0.20031-0.07164 0.0865-0.0159 0.17662-0.0014 0.26371-0.01394 0.28225-0.03975 0.15961-0.10331 0.27448-0.03106 0.05772-0.12517 0.08948-0.18303 0.12995-0.32202 0.0233-0.07998 0.0291-0.16478 0.05833-0.24278 0.07157-0.19099 0.24955-0.33844 0.31948-0.53248 0.02365-0.09005 0.05599-0.1788 0.071-0.27068 0.01506-0.09227 0.02866-0.43306 0.045-0.59016 0.07788-0.12984 0.21289-0.21934 0.30364-0.34167 0.24164-0.32577 0.28938-0.49568 0.4507-0.86718 0.45304-1.0059-0.06275-0.01948 0.632-0.90078 0.11163-0.1416 0.1798-0.31238 0.27638-0.46465 0.0835-0.13164 0.17329-0.25925 0.26307-0.38668 0.07801-0.11072 0.17952-0.20665 0.24025-0.32773 0.05442-0.1085 0.06677-0.23322 0.10016-0.34992 0.14133-0.25408-0.02039-0.60763 0.2521-0.76059 0.09889-0.05551 0.22236-0.05583 0.32076-0.1122 0.10069-0.05769 0.17415-0.15463 0.26687-0.2244 0.406-0.3055 0 0 0.42916-0.36829 0.04028-0.0823 0.06802-0.17187 0.12107-0.24659 0.19944-0.28092 0.29551-0.58298 0.56342-0.78828 0.27998-0.21454 0.30275-0.24348 0.54832-0.46782 0.1488-0.3193 0.11884-0.34567 0.38985-0.57622 0.09076-0.0772 0.21359-0.11503 0.29413-0.20285 0.06848-0.07466 0 0 0.13946-0.27004 0.33705-0.65266 0.26433 0.23144 0.48557-0.47986 0.07477-0.23566 0.33665-0.32146 0.45704-0.5179 0.08154-0.13306 0.2653-0.32516 0.34884-0.45697 0.16149-0.25475 0.34934-0.29296 0.56037-0.49634 0.07636-0.0736 0.13047-0.16689 0.19588-0.25039 0.3762-0.21111 0.43758-0.72513 0.75942-0.99015l0.52867-0.27765c0.26363-0.27031 0.68964-0.16373 0.97824-0.40932 0.1097-0.09336 0.24229-0.1594 0.34611-0.25926 0.48693-0.46836-0.2433-0.34544 0.4086-0.6498 0.1985-0.31563 0.17601-0.33823 0.45767-0.56925 0.07888-0.06469 0.17382-0.10803 0.25293-0.17242 0.08982-0.07311 0.15754-0.17237 0.25229-0.23898 0.08248-0.05798 0.18271-0.08427 0.27258-0.12995 0.1039-0.05281 0.20597-0.11044 0.30871-0.16545 0.67576-0.70881-0.08795 0.07528 0.58509-0.56544 0.09047-0.08613 0.16874-0.18476 0.26117-0.26878 0.02321-0.0211 0.47776-0.37168 0.50586-0.41584 0.07414-0.11654 0.09395-0.2599 0.14072-0.38985 0.16792-0.38909 0.67756-0.37051 1.0399-0.55335 0.04774-0.02409 0.10713-0.02905 0.14579-0.06592 0.06307-0.0602 0.09943-0.14315 0.14897-0.21489 0.09755-0.19228 0.32507-0.26267 0.44627-0.42979 0.09099-0.12547 0.09048-0.31246 0.20538-0.41648 0.10862-0.09834 0.28272-0.08257 0.41521-0.14516 0.40959-0.19349 0.37363-0.23826 0.65799-0.60094 0.63012-0.21295 1.1978-0.55178 1.716-0.96607 0.2788-0.22291 0.52831-0.48064 0.79302-0.72011 0.38721-0.15819 0.68013-0.73149 1.0352-0.91726 0.13321-0.0697 0.30014-0.05127 0.43613-0.11537 0.1353-0.06378 0.24158-0.17566 0.36386-0.2618 0.11591-0.08166 0.2338-0.16107 0.35055-0.24152 0.13995-0.08622 0.26722-0.19706 0.41964-0.25863 0.17068-0.06894 0.36405-0.06593 0.53755-0.12742 0.70064-0.2483 0.17923-0.14537 0.7816-0.50839 0.21408-0.12901 0.42355-0.14956 0.65862-0.19271 0.20604-0.22218 0.43877-0.48153 0.69729-0.67447-0.08949 0.02891-0.17373 0.04205-0.2263-0.02026-0.15893-0.18844-0.22517-0.25425-0.36259-0.4114 0.06197 0.0049 0.12585 0.01584 0.18637 0.01458 0.62839 0.37274-0.09089-0.04277 0.57558 0.30618 0.02257-0.01324 0.04362-0.0312 0.06656-0.04313 0.08165-0.04239 0.17235-0.06382 0.25864-0.09572 0.117-0.05758 0.20926 0.07832 0.31632 0.06656 0.08489-0.0093 0.19148-0.14401 0.26941-0.17559 0.0395-0.016 0.0998 0.01712 0.12678-0.01585 0.02993-0.0366 2e-3 -0.09472 0.0025-0.14199 1.266-1.8425 1.4297-1.3078-1.1283-3.8681-0.05787-0.05792-0.86222 0.10134-1.0219 0.23835-0.07576 0.06502-0.07989 0.18456-0.13819 0.2656-0.08626 0.11992-0.19487 0.22233-0.29223 0.33343-0.05493 0.03662-0.10611 0.08339-0.16038 0.12171 0.10289-0.13786 0.15542-0.21114 0.28589-0.39492-0.03606-0.02002-0.06774-0.07023-0.10776-0.06022-0.03062 0.0076-0.0039 0.06538-0.0209 0.09192-0.06572 0.10205-0.083-0.0021-0.14136 0.1141-0.2291 0.45587-0.11228 0.28334-0.12551 0.3011-0.31411 0.04435-0.40458-0.13987-0.69096-0.16925-0.27583-0.02831-0.65205 0.10693-0.92042 0.17686-0.49463 0.0098-0.97394 0.13693-1.4339 0.31378-0.13911 0.01321-0.28266 0.0177-0.42535 0.01902 0.10146-0.07781 0.20423-0.15301 0.30934-0.23327 0.69725-0.52616 0.02168 0.0696 0.46211-0.58382 0.06837-0.10143 0.20048-0.15063 0.26244-0.2561 0.07201-0.12257 0.04338-0.2923 0.12742-0.40696 0.11459-0.15638 0.60495-0.31484 0.74737-0.3702 0.27355-0.19468 0.56975 0.0099 0.8488-0.03867 0.40102-0.06972 0.31939-0.21049 0.6377-0.41647 0.12163-0.0787 0.2664-0.11443 0.39492-0.1813 0.12156-0.06325 0.23569-0.13893 0.35372-0.20855 0.61211-0.58945-0.06541-7.37e-4 0.74547-0.48811 0.51163-0.30733 0.12949-0.22177 0.64975-0.46465 0.6545-0.30555 0.19662 0.06908 0.67954-0.40697 0.36576-0.12667 0.65546-0.3656 0.96417-0.58636 0.12313-0.08806 0.26375-0.1531 0.37527-0.25546 0.23107-0.2121 0.33486-0.43693 0.4862-0.70109 0.08175-0.11106 0.14011-0.24428 0.24532-0.33344 0.08172-0.06923 0.20177-0.07465 0.29603-0.12551 0.10427-0.05625 0.19054-0.14324 0.2973-0.19461 0.16536-0.07957 0.49039-0.13922 0.67891-0.16925 0.70111-0.57442 1.0199-0.72027 0.961-2.1489-0.02115-0.5131-0.39748-0.96036-0.71314-1.3654-0.05156-0.06617-0.86353-0.56877-1.0935-0.65799-0.15468-0.06001-0.31934-0.08878-0.47923-0.13312-0.4079-0.06021-0.79235-0.28844-1.2082-0.30935-0.3405-0.01712-0.36705 0.08511-0.69349 0.15721-0.13771 0.03042-0.27981 0.03679-0.41964 0.05515-0.47799-0.02159-0.95783-0.1144-1.4256 0.03233-0.24863 0.07799-0.48168 0.19874-0.72392 0.29476-0.25909 0.11881-0.44445 0.23313-0.7404 0.24659-0.15464 7e-3 -0.30767-0.0593-0.46212-0.04881-0.10898 0.0074-0.207 0.06819-0.31125 0.10079-0.36596 0.11445-0.3126 0.0968-0.66179 0.18764-0.56156-0.02184-0.35125 0.84379-0.90774 0.83358-0.14919-0.0025-0.24956-0.1687-0.38922-0.22123-0.43995-0.16548-0.43368-0.08575-0.85577 0.06276-0.15832 0.01291-0.31961 0.0049-0.47479 0.03867-0.13939 0.03042-0.29934 0.05104-0.39999 0.15214-0.18819 0.18903-0.31164 0.90954-0.80316 0.8114-2.2552-0.45029 0.60976-0.52447-1.1569-0.41204-0.5825-0.13253-0.91258 1.266-1.2044 1.2564-0.25436-0.0084-0.33506-0.38515-0.52488-0.55466-0.53055-0.4738-0.36968-0.40081-0.92676-0.28906-0.38304 0.04657-0.75014 0.14636-1.136 0.17115-0.1152 0.0074-0.23268-0.01003-0.34611 0.01141-0.14506 0.02743-0.27938 0.0963-0.42218 0.13375-0.13516 0.03542-0.27328 0.05674-0.41014 0.08494-0.34814 0.05449-0.69557 0.12742-1.0516 0.10269-0.9187-0.06384-0.19355-0.16163-1.0827-0.11854-1.1774 0.05707 0.15518 0.08768-0.82154 0.04945-0.08152 0.0031-0.04735 2e-3 -0.09572 0.0031-0.04548-0.15004-0.09501-0.29919-0.09889-0.45451-0.0059-0.23534 0.13188-0.46008 0.12488-0.69539-0.0065-0.21795-0.10942-0.42222-0.16418-0.63327l0.0014-0.68081c0.0034-0.14574 0.03813-1.1756-0.0083-1.3242-0.06725-0.21556-0.21515-0.40093-0.36132-0.57305-0.1565-0.18426-0.46746-0.25503-0.53818-0.4862-0.13219-0.43207 0.48981-0.8734 0.29286-1.3236-0.24627-0.81221-0.15941-0.39728-0.2618-1.2431-0.04269-0.1722-0.15252-0.32223-0.20222-0.49254-0.13631-0.46718-0.0447-0.95212-0.41584-1.3401-0.03719-0.04937-0.4879-0.62919-0.52741-0.7461-0.04068-0.12032 0.02807-0.2642-0.02473-0.37971-0.05046-0.11041-0.19024-0.1544-0.26371-0.25103-0.05875-0.07729-0.08408-0.17492-0.12614-0.26244-0.07419-0.08108-0.14832-0.16233-0.2225-0.24342-0.16515-0.10396-0.42773-0.12895-0.49571-0.31188-0.13596-0.36587 0.57295-0.49811 0.85703-0.83675 0.12431-0.14818 0.13445-0.36281 0.19524-0.54642 0.26053-0.78696 0.25257-0.42934-0.1439-1.2317-0.04097-0.05713-0.20792-0.27984-0.36703-0.50712-0.12739 0.10432-0.173 0.33446-0.41888 0.2362-0.03703-0.18532 0.13116-0.30253 0.18561-0.35348 0.03229-0.0302 0.07624-0.04146 0.12107-0.05071-0.14861-0.22515-0.28064-0.44791-0.28779-0.55784-0.02679-0.41143 0.70983-1.0146 0.79808-1.2437 0.06954-0.18052-0.05918-0.38224-0.07606-0.57495-0.01285-0.1468-9e-3 -0.29453-0.0133-0.44183-0.53975-0.56842-1.1922-1.0058-2.0298-1.0345zm1.6088 3.8529c0.04279 0.0648-0.17326 0.22298 0.1122 0.16798 0.06294-0.19593 0.0019-0.22948-0.1122-0.16798zm19.563 25.548c-0.05854 0.03435-0.117 0.0691-0.17305 0.11093 0.07401-0.02389 0.15217-0.05857 0.21806-0.0729 0.01718-0.0039-0.02375-0.02729-0.0393-0.03553-0.0062-0.0034 3.14e-4 4.9e-4 -0.0057-0.0025zm-69.293-6.9279c-0.63334-15.024-0.31667-7.5118 0 0zm0.08937-0.27385c-0.0062-0.03961-0.01524-0.06137-0.02282-0.09255-0.02134-0.03188-0.04423-0.06329-0.06022-0.09635-0.02261 0.03542-0.04522 0.07043-0.06782 0.10586zm47.631-19.08c0.1675-0.0026 0.29995 0.06667 0.29476 0.2954-5e-3 0.21394-0.48759 0.58883-0.71377 0.76258-0.1385-0.09041-0.272-0.19032-0.39809-0.29984 0.03935-0.08344 0.0927-0.16164 0.1179-0.25039 0.02709-0.09523-0.04352-0.23617 0.03675-0.29413 0.0055-4e-3 0.38326-0.20928 0.66243-0.21362zm0.01649 4.1223c-0.01614 0.1006-0.06907 0.18806-0.13819 0.27004 0.01531-0.09067 0.03886-0.17865 0.10459-0.25102 0.0089-0.0097 0.0236-0.01096 0.03361-0.01902zm-0.38034 0.84753c-0.01173 0.18819 1.47e-4 -0.04887 0.1179 0.76448 0.02277 0.15714-0.0368 0.32582 0.01458 0.47606 0.04642 0.13573 0.2039 0.20904 0.26434 0.33914 0.13136 0.28276 0.06412 0.46043 0.0209 0.7423-0.0044 0.12704-0.03435 0.25636-0.01266 0.38161 0.02768 0.15991 0.30549 0.72342 0.34104 0.84753 0.04632 0.16168 0.03219 0.33678 0.07924 0.49825 0.42305 1.4518 0.02989-0.53246 0.31251 1.0802-0.02537 0.48686 0.77685 0.57045 0.82471 0.99966 0.02615 0.23468-0.22045 0.4192-0.30681 0.63897-0.07137 0.18163-0.15868 0.36659-0.16482 0.56164-0.0054 0.17286 0.08913 0.33383 0.13185 0.50142 0.04455 0.17468 0.08601 0.35052 0.12932 0.5255 0.02792 0.19012 0.05577 0.37976 0.08368 0.56988-0.02581 0.21846-0.09858 0.4365-0.07733 0.65545 0.01084 0.11185 0.05703 0.2166 0.10269 0.32139-0.20133-0.03808-0.40805-0.04744-0.61108-0.07733-0.46226-0.1363-0.93776-0.22179-1.4206-0.15848-0.91484 0.11998 0.17625 0.05388-0.76259 0.09318-0.12844-0.02831-0.68021-0.15622-0.80696-0.15911-0.24275-0.0055-0.58993 0.10079-0.82851 0.12932-0.74438 0.08902-0.05662-0.07851-0.774 0.12932-0.50445 0.2112-0.81755-0.16823-1.2868-0.2206-0.5163-0.01134-0.26892 0.0082-0.74293-0.05135-0.75942 0.07715-0.08327-0.03746-0.70553 0.18447-0.61345 0.2188 0.1401-0.16169-0.60474 0.19271-0.10257 0.04883-0.18828 0.1327-0.29603 0.16862-0.06593 0.02198-0.13474 0.03214-0.20412 0.03994 0.06499-0.07242 0.20016-0.09652 0.28779-0.15277 0.11351-0.07286 0.23616-0.13214 0.34168-0.21616 0.28452-0.22658 0.29821-0.30251 0.4824-0.59904 0.07381-0.11474 0.14664-0.22997 0.22123-0.34421 0.07015-0.10744 0.12647-0.226 0.21299-0.32075 0.22317-0.24441 0.54978-0.36596 0.66306-0.71378 0.34419-1.0568-0.38707-0.221 0.40443-0.94768 0.20477-0.26541 0.51024-0.42662 0.73342-0.67194 0.1002-0.11013 0.17563-0.24005 0.25736-0.3645 0.07943-0.12093 0.17675-0.23467 0.22567-0.37083 0.14331-0.39884 0.04928-0.62605-0.0133-1.0383 0.1939-0.03375 0.39817-0.03089 0.58192-0.10142 0.60899-0.23368 0.28261-0.34699 0.21553-0.90521-0.02179-0.18122-0.12376-0.41299-4.91e-4 -0.54769 0.79954-0.21932 0.5328 0.0038 0.90838-0.51093 0.72418-0.81817-0.1204 0.21158 0.40126-0.66686 0.62558-1.0534-0.15401 0.55586 0.4412-0.51346 0.11502-0.20665 0.13423-0.5199 0.16609-0.73596 0.06721-0.04501 0.4854-0.32694 0.65228-0.4526zm23.438 8.5209c-0.15072 0.32272-0.32779 0.62435-0.54959 0.90268-0.02145 0.02688-0.04014 0.05619-0.05959 0.08494 0.10252-0.23185 0.24125-0.50918 0.40823-0.87542 0.03184-0.06983 0.13398-0.0747 0.20095-0.1122zm-5.3546 3.6139c0.15906-0.0027 0.3174 0.09652 0.46275 0.19587-0.01364 0.0056-0.02791 0.01027-0.04121 0.01648-0.08762 0.07134-0.17977 0.1373-0.26307 0.21363-0.07301 0.06688-0.12046 0.16296-0.20475 0.21489-0.09572 0.05896-0.22053 0.05504-0.31949 0.1084-0.38825 0.20934-0.54235 0.6499-0.78286 0.99079-0.24186 0.21367-0.49298 0.47319-0.80823 0.58382-0.19293 0.0677-0.41423 0.02565-0.60537 0.09826-0.1684 0.06396-0.291 0.21373-0.44817 0.30174-0.80625 0.45144-0.32938-0.0071-0.87986 0.65926-0.70737 0.90007-0.03518 7e-3 -0.63073 0.90394-0.10399 0.15663-0.21925 0.30567-0.329 0.45831-0.11358 0.17728-0.22746 0.35456-0.34104 0.53184-0.11535 0.17874-0.25237 0.34469-0.34738 0.53502-0.13448 0.26939-0.22534 0.55811-0.33787 0.83739-0.02478 0.28925-0.11223 0.58001-0.07417 0.86781 0.09263 0.70046 0.67803 1.4058 1.2716 1.7591 0.1953 0.11624 0.60862 0.21217 0.87162 0.27575-0.01595 0.01516-0.03548 0.02508-0.05071 0.04122-0.28905 0.17046-0.59261 0.31571-0.87542 0.49635-0.13341 0.08521-0.25203 0.19229-0.37971 0.28589-0.14152 0.10375-0.29407 0.19265-0.42788 0.30618-0.3539 0.30022-0.40326 0.40969-0.6675 0.77019-0.45056 0.18358-0.4965 0.14082-0.82027 0.50712-0.10377 0.1174-0.13907 0.29752-0.26878 0.38541-0.12579 0.08525-0.30617 0.03646-0.445 0.09826-0.26049 0.11591-0.43107 0.38758-0.6992 0.49318-0.32153 0.2041-0.39767 0.2059-0.61679 0.55466-0.052 0.08277-0.06396 0.18494-0.10016 0.27575-0.12014 0.30137-0.31203 0.49929-0.59967 0.65672-0.09072 0.02036-0.19364 0.01173-0.27258 0.06085-0.08118 0.05053-0.12246 0.14699-0.18193 0.22187-0.22943 0.28886-0.47985 0.57658-0.79745 0.77082-0.05563 0.06628-0.41944 0.50229-0.46782 0.5477-0.08099 0.076-0.18377 0.12556-0.26814 0.19778-0.27965 0.23938-0.47644 0.50883-0.86211 0.58953-0.52774 0.71195-0.90253 1.1539-1.6432 1.7758-0.12374 0.10391-0.15714 0.57081-0.27082 0.68564-0.34164 0.34505-0.26387 0.48559-0.58443 0.85239-0.99794 1.6955-0.52814 0.69295-1.4976 1.9727-0.36449 0.48113-0.28012 0.38963-0.36449 0.48113-0.05556 0.06025-0.12862 0.10489-0.17686 0.17115-0.05956 0.08183-0.09512 0.17877-0.14263 0.26814-0.06026 0.07546-0.13455 0.14147-0.18066 0.2263-0.10299 0.18949-0.01001 0.30891-0.23138 0.44183-3.58e-4 2.15e-4 -9.53e-4 -2.12e-4 -0.0014 0 0.0062-0.01325 0.01683-0.02439 0.02218-0.03803 0.15375-0.39145 0.01752-0.31712 0.08431-0.75117 0.01914-0.12436 0.08202-0.23822 0.11093-0.36069 0.02179-0.09224 0.38054-1.0304 0.39398-1.1242 0.20975-0.22075 0.70096-0.61403 0.62678-0.95654-0.03955-0.18246 0.13593-0.51651-0.14869-0.99892 0.01123-0.30148 0.59732-0.3642 0.58319-0.69222 0.23932-0.36534 0.36993-0.43914 0.3626-0.88873-0.0025-0.1539 0.91092-1.4898 0.89961-1.6433-0.01158-0.15692 0.03548-0.31465 0.02473-0.47162-0.03023-0.44304-0.13816-0.50292-0.3759-0.90141-0.19522-0.15676-0.44177-0.26552-0.58573-0.47036-0.35404-0.50379 1.2815-1.0944 1.4941-1.2361 0.07752-0.05167 0.11671-0.14534 0.17495-0.21806-0.0105-0.07397-0.01688-0.14864-0.0317-0.22187-0.01481-0.07339-0.04843-0.14306-0.05705-0.21743-0.01492-0.12805 0.02453-0.3447 0.03297-0.46718 0.04195-0.60816-0.0364 0.0133 0.06782-0.68272 0.0039-0.33023-0.01138-0.42624 0.06465-0.76448 0.0367-0.16326 0.13413-0.31454 0.1401-0.48176 0.0064-0.17926-0.10748-0.3487-0.10396-0.52804 0.01025-0.52422 0.19988-0.65442 0.49001-1.0669 0.05181-0.69135 0.11011-0.44448-0.23772-1.1867-0.12524-0.26724-0.34627-0.49748-0.40823-0.78604-0.29234-1.3614 0.44457-0.1233 0.67194-1.4345 0.04913-0.28332-0.21802-0.53202-0.3271-0.79808-0.22268-0.27373-0.33849-0.53528-0.29832-0.88585 0.062-0.54117-0.0481-0.50779 0.34898-0.97504 0.27829-0.20769 0.3634-0.31853 0.36831-0.31719 0.66714 0.18281 0.05503 0.08914 0.72015 0.09946 0.18468-0.01703 0.36905-0.03801 0.55404-0.05135 0.16553-0.01192 0.33267-0.0015 0.49698-0.02472 0.18416-0.02629 0.36735-0.06692 0.54453-0.12361 0.18539-0.05932 0.35377-0.1647 0.53945-0.22313 0.3733-0.11746 0.51024-0.09254 0.88746-0.09635l0.41901 0.02979c0.11189 0.02777 0.22113 0.07282 0.33597 0.08304 0.13274 0.01182 0.26615-0.01348 0.39935-0.01775 0.45294-0.01447 0.90223 0.02738 1.3547-0.0089 0.64302-0.01835 0.43564 0.10868 0.87225-0.49698 0.15568-0.21596 0.18089-0.59684 0.43739-0.66813 0.23644-0.06571 0.42071 0.25258 0.63644 0.36956 0.81921 0.44424 0.47088 0.37003 1.2849 0.29603 0.53994-0.54937-0.63722 0.43574 0.76829-0.92043 0.30122-0.29066 0.83183 0.37868 0.92423 0.41648 0.14172 0.05796 0.3084 0.01017 0.45895-0.01775 0.14032-0.02601 0.26921-0.09514 0.40379-0.14263 0.45961-0.01218 0.38897 0.05953 0.77019-0.24152 0.13748-0.10856 0.2206-0.29441 0.38351-0.35879 0.04023-0.0159 0.08146-0.0234 0.12234-0.02408zm-64.413 1.5385c0.0602 0.96848 0.08394 0.997-0.86908 0.47416 0.16059-0.24792 0.21994-0.25838 0.65228-0.17623 0.04274-0.10172 0.17651-0.24257 0.2168-0.29793zm-0.21679 0.29793c-0.0091 0.01481-0.0085 0.01187-0.01839 0.0279 0.01114 1.17e-4 0.01226-0.0186 0.01839-0.0279zm-0.01839 0.0279c-1.1607-14.767-0.58037-7.3833 0 0zm62.242 3.8573c0.078 0.0069 0.14109 0.06842 0.20602 0.1122 0.17091 0.11524 0.3018 0.2156 0.3759 0.39048-0.09554-0.02294-0.18852-0.05649-0.27701-0.10713-0.38031-0.2176 0.06167-0.07555-0.3271-0.17749-0.09075-0.0039-0.05064-0.22446 0.02218-0.21806zm0.61869 0.86211c-0.01497 0.06008-0.03508 0.12058-0.045 0.18066-0.04529 0.07598-0.05753 0.18605-0.13566 0.22757-0.04382 0.0233-0.02875-0.10095-0.01394-0.14834 0.02022-0.06473 0.07161-0.11478 0.11283-0.16862 0.02542-0.03319 0.05465-0.06082 0.08177-0.09128zm-57.009 19.184c0.02943 3.53e-4 0.06955 0.03243 0.12234 0.11854 0.01363 0.02551 0.01063 0.0293 0.01268 7e-3 0.0103 0.01079 0.02076 0.02154 0.03106 0.03234-0.02158 0.0044-0.04265 0.0079-0.06593 0.01776-0.05406 0.02286-0.08246 0.09871-0.14072 0.10586-0.04082 0.0051-0.04771-0.28251 0.04057-0.28145zm0.26434 0.34421c0.05771 0.1592 0.08442 0.30469 0.02662 0.47859-0.02154-0.04288-0.05098-0.08266-0.06466-0.12868-0.03839-0.12923 0.01659-0.08567-0.0012-0.20538-0.0016-0.01084-0.0075-0.02051-0.01268-0.03042-0.02428 0.09665-0.09154 0.14322-0.07037 0.04058 0.0057-0.02772 0.04072-0.03518 0.06656-0.05071-0.0062-0.01148-0.01252-0.02286-0.01458-0.03553-0.0019-0.01182 0.06043-0.01182 0.02979 0.02026-4.23e-4 0.0044-0.0031 0.0044-0.0038 0.0083 0.0015-0.0014 0.0043-0.0014 0.0057-3e-3 0.0221-0.02483 0.02851-0.0607 0.03867-0.09381zm-0.04437 0.09699c-0.0032 3e-3 -0.0075 5e-3 -0.0114 7e-3 0.0017 0.0034 0.0021 0.0069 0.0038 0.01016 0.0019-0.0076 0.0064-0.0089 0.0076-0.01712z" stroke-linecap="square" stroke-linejoin="bevel" stroke-miterlimit="2" stroke-width="1.7075" style="paint-order:markers stroke fill"/>
  <g transform="matrix(2.4989 0 0 2.4989 -45.643 -42.82)">
   <g transform="matrix(.26458 0 0 .26458 0 -.52941)" fill="#fff" style="shape-inside:url(#rect3465);white-space:pre">
    <path d="m207.69 127.01v-15.078h3.1641q2.2754 0 3.5938 0.44922 1.416 0.43945 2.5684 1.4941 2.334 2.1289 2.334 5.5957 0 3.4766-2.4316 5.625-1.2207 1.0742-2.5586 1.4941-1.25 0.41993-3.5449 0.41993zm2.2754-2.1387h1.0254q1.5332 0 2.5488-0.32226 1.0156-0.3418 1.8359-1.084 1.6797-1.5332 1.6797-3.9941 0-2.4805-1.6602-4.0234-1.4941-1.377-4.4043-1.377h-1.0254z"/>
    <path d="m229.5 111.93v15.078h-2.2754v-15.078z"/>
    <path d="m245.88 119.16h6.2305v0.49805q0 1.6992-0.40039 3.0078-0.39063 1.2109-1.3184 2.2656-2.0996 2.3633-5.3418 2.3633-3.1641 0-5.4199-2.2852-2.2559-2.2949-2.2559-5.5078 0-3.2812 2.2949-5.5664 2.2949-2.2949 5.5859-2.2949 1.7676 0 3.3008 0.72266 1.4648 0.72266 2.8809 2.3438l-1.6211 1.5527q-1.8555-2.4707-4.5215-2.4707-2.3926 0-4.0137 1.6504-1.6211 1.6211-1.6211 4.0625 0 2.5195 1.8066 4.1504 1.6894 1.5137 3.6621 1.5137 1.6797 0 3.0176-1.1328 1.3379-1.1426 1.4942-2.7344h-3.7598z"/>
    <path d="m262.23 111.93v15.078h-2.2754v-15.078z"/>
    <path d="m275.02 114.07v12.939h-2.2754v-12.939h-3.4668v-2.1387h9.1992v2.1387z"/>
    <path d="m293.56 123.35h-6.4551l-1.6797 3.6621h-2.4512l7.4609-16.025 7.1973 16.025h-2.4902zm-0.92774-2.1387-2.2363-5.127-2.3438 5.127z"/>
    <path d="m306.8 111.93v12.939h4.4336v2.1387h-6.709v-15.078z"/>
    <path d="m340.71 112.74v2.6953q-1.9726-1.6504-4.082-1.6504-2.3242 0-3.916 1.6699-1.6016 1.6602-1.6016 4.0625 0 2.373 1.6016 4.0039t3.9258 1.6309q1.2012 0 2.041-0.39063 0.46875-0.19531 0.9668-0.52734 0.50781-0.33203 1.0644-0.80078v2.7441q-1.9531 1.1035-4.1016 1.1035-3.2324 0-5.5176-2.2559-2.2754-2.2754-2.2754-5.4883 0-2.8809 1.9043-5.1367 2.3438-2.7637 6.0644-2.7637 2.0312 0 3.9258 1.1035z"/>
    <path d="m347.75 119.4q0-3.1836 2.334-5.4688 2.3242-2.2852 5.5859-2.2852 3.2227 0 5.5274 2.3047 2.3144 2.3047 2.3144 5.5371 0 3.252-2.3242 5.5176-2.334 2.2754-5.6348 2.2754-2.9199 0-5.2441-2.0215-2.5586-2.2363-2.5586-5.8594zm2.2949 0.0293q0 2.5 1.6797 4.1113 1.6699 1.6113 3.8574 1.6113 2.373 0 4.0039-1.6406 1.6309-1.6602 1.6309-4.043 0-2.4121-1.6113-4.043-1.6016-1.6406-3.9648-1.6406-2.3535 0-3.9746 1.6406-1.6211 1.6211-1.6211 4.0039z"/>
    <path d="m376.51 120.58 4.668 6.4258h-2.7832l-4.3066-6.1719h-0.41016v6.1719h-2.2754v-15.078h2.666q2.9883 0 4.3164 1.123 1.4648 1.25 1.4648 3.3008 0 1.6016-0.91797 2.7539t-2.4219 1.4746zm-2.832-1.7285h0.72266q3.2324 0 3.2324-2.4707 0-2.3145-3.1445-2.3145h-0.81055z"/>
    <path d="m390.71 120.89v6.123h-2.2754v-15.078h2.5781q1.8945 0 2.8613 0.26367 0.97656 0.26368 1.7188 0.9961 1.2988 1.2695 1.2988 3.2031 0 2.0703-1.3867 3.2812t-3.7402 1.2109zm0-2.1094h0.84961q3.1348 0 3.1348-2.4121 0-2.334-3.2324-2.334h-0.75196z"/>
    <path d="m406.53 111.93v9.082q0 1.9434 0.63476 2.8418 0.94727 1.2988 2.666 1.2988 1.7285 0 2.6758-1.2988 0.63476-0.86914 0.63476-2.8418v-9.082h2.2754v9.707q0 2.3828-1.4844 3.9258-1.6699 1.7188-4.1016 1.7188t-4.0918-1.7188q-1.4844-1.543-1.4844-3.9258v-9.707z"/>
    <path d="m432.54 114.18-1.8457 1.0938q-0.51758-0.89844-0.98633-1.1719-0.48828-0.3125-1.2598-0.3125-0.94726 0-1.5723 0.53711-0.625 0.52734-0.625 1.3281 0 1.1035 1.6406 1.7774l1.5039 0.61523q1.8359 0.74219 2.6856 1.8164 0.84961 1.0644 0.84961 2.6172 0 2.0801-1.3867 3.4375-1.3965 1.3672-3.4668 1.3672-1.9629 0-3.2422-1.1621-1.2598-1.1621-1.5723-3.2715l2.3047-0.50781q0.15625 1.3281 0.54687 1.8359 0.70313 0.97656 2.0508 0.97656 1.0644 0 1.7676-0.71289 0.70312-0.71289 0.70312-1.8066 0-0.43946-0.12695-0.80078-0.11719-0.3711-0.38086-0.67383-0.2539-0.3125-0.66406-0.57617-0.41016-0.27344-0.97656-0.51758l-1.4551-0.60547q-3.0957-1.3086-3.0957-3.8281 0-1.6992 1.2988-2.8418 1.2988-1.1524 3.2324-1.1524 2.6074 0 4.0723 2.5391z"/>
    <path d="m451.12 119.4q0-3.1836 2.334-5.4688 2.3242-2.2852 5.5859-2.2852 3.2227 0 5.5274 2.3047 2.3144 2.3047 2.3144 5.5371 0 3.252-2.3242 5.5176-2.334 2.2754-5.6348 2.2754-2.9199 0-5.2441-2.0215-2.5586-2.2363-2.5586-5.8594zm2.2949 0.0293q0 2.5 1.6797 4.1113 1.6699 1.6113 3.8574 1.6113 2.373 0 4.0039-1.6406 1.6309-1.6602 1.6309-4.043 0-2.4121-1.6113-4.043-1.6016-1.6406-3.9648-1.6406-2.3535 0-3.9746 1.6406-1.6211 1.6211-1.6211 4.0039z"/>
    <path d="m482.29 114.07h-5.2539v3.623h5.0684v2.1387h-5.0684v7.1777h-2.2754v-15.078h7.5293z"/>
    <path d="m207.2 156.49 3.7547-22.117h5.6907l4.4293 11.792 4.4-11.792h5.6907l3.7547 22.117h-5.72l-1.9067-12.731-5.2213 12.731h-2.288l-4.9573-12.731-1.9067 12.731z"/>
    <path d="m243.58 145.43q0 1.32 0.49866 2.4347 0.49867 1.1147 1.3493 1.936 0.85066 0.82133 1.9653 1.2907 1.144 0.44 2.4053 0.44t2.376-0.44q1.144-0.46934 1.9947-1.2907 0.88-0.82133 1.3787-1.936 0.49867-1.1147 0.49867-2.4347t-0.49867-2.4347q-0.49866-1.1147-1.3787-1.936-0.85067-0.82133-1.9947-1.2613-1.1147-0.46934-2.376-0.46934t-2.4053 0.46934q-1.1147 0.44-1.9653 1.2613-0.85067 0.82133-1.3493 1.936-0.49866 1.1147-0.49866 2.4347zm-6.0133 0q0-2.464 0.90933-4.576 0.90934-2.1413 2.5227-3.7253 1.6133-1.584 3.8427-2.464 2.2587-0.90933 4.9573-0.90933 2.6693 0 4.928 0.90933 2.2587 0.88 3.872 2.464 1.6427 1.584 2.552 3.7253 0.90934 2.112 0.90934 4.576t-0.90934 4.6053q-0.90933 2.112-2.552 3.696-1.6133 1.584-3.872 2.4933-2.2587 0.88-4.928 0.88-2.6987 0-4.9573-0.88-2.2293-0.90933-3.8427-2.4933-1.6133-1.584-2.5227-3.696-0.90933-2.1413-0.90933-4.6053z"/>
    <path d="m277.87 140.03q-0.93867-0.76266-1.8773-1.1147-0.93867-0.38134-1.8187-0.38134-1.1147 0-1.8187 0.528t-0.704 1.3787q0 0.58666 0.352 0.968 0.352 0.38133 0.90933 0.67466 0.58667 0.264 1.2907 0.46934 0.73333 0.20533 1.4373 0.44 2.816 0.93866 4.1067 2.5227 1.32 1.5547 1.32 4.0773 0 1.7013-0.58667 3.08-0.55733 1.3787-1.672 2.376-1.0853 0.968-2.6987 1.496-1.584 0.55733-3.608 0.55733-4.1947 0-7.7733-2.4933l2.464-4.6347q1.2907 1.144 2.552 1.7013 1.2613 0.55733 2.4933 0.55733 1.408 0 2.0827-0.64533 0.704-0.64533 0.704-1.4667 0-0.49867-0.176-0.85067-0.176-0.38133-0.58667-0.67466-0.41066-0.32267-1.0853-0.58667-0.64533-0.264-1.584-0.58667-1.1147-0.352-2.2-0.76266-1.056-0.44-1.9067-1.144-0.82133-0.704-1.3493-1.76-0.49867-1.0853-0.49867-2.728t0.528-2.9627q0.55734-1.3493 1.5253-2.288 0.99734-0.968 2.4053-1.496 1.4373-0.528 3.1973-0.528 1.6427 0 3.432 0.46933 1.7893 0.44 3.432 1.32z"/>
    <path d="m297.27 139.24h-6.8347v3.696h6.4533v4.8693h-6.4533v3.8133h6.8347v4.8693h-12.584v-22.117h12.584z"/>
    <path d="m313.56 140.03q-0.93866-0.76266-1.8773-1.1147-0.93866-0.38134-1.8187-0.38134-1.1147 0-1.8187 0.528-0.70399 0.528-0.70399 1.3787 0 0.58666 0.35199 0.968 0.352 0.38133 0.90934 0.67466 0.58666 0.264 1.2907 0.46934 0.73333 0.20533 1.4373 0.44 2.816 0.93866 4.1067 2.5227 1.32 1.5547 1.32 4.0773 0 1.7013-0.58666 3.08-0.55733 1.3787-1.672 2.376-1.0853 0.968-2.6987 1.496-1.584 0.55733-3.608 0.55733-4.1947 0-7.7733-2.4933l2.464-4.6347q1.2907 1.144 2.552 1.7013t2.4933 0.55733q1.408 0 2.0827-0.64533 0.70399-0.64533 0.70399-1.4667 0-0.49867-0.176-0.85067-0.176-0.38133-0.58666-0.67466-0.41067-0.32267-1.0853-0.58667-0.64534-0.264-1.584-0.58667-1.1147-0.352-2.2-0.76266-1.056-0.44-1.9067-1.144-0.82134-0.704-1.3493-1.76-0.49866-1.0853-0.49866-2.728t0.528-2.9627q0.55733-1.3493 1.5253-2.288 0.99733-0.968 2.4053-1.496 1.4373-0.528 3.1973-0.528 1.6427 0 3.432 0.46933 1.7893 0.44 3.432 1.32z"/>
    <path d="m338.12 151.62h9.2693v4.8693h-18.92l10.472-17.248h-8.712v-4.8693h18.304z"/>
    <path d="m363.34 148.28-2.5813-7.3627-2.5813 7.3627zm1.5253 4.3707h-8.2133l-1.32 3.8427h-6.1307l8.4187-22.117h6.2773l8.4187 22.117h-6.1307z"/>
    <path d="m389.98 141.76q-1.9947-2.4347-4.928-2.4347-1.2907 0-2.4053 0.46934-1.0853 0.46933-1.8773 1.2907-0.792 0.792-1.2613 1.9067-0.44 1.1147-0.44 2.4053 0 1.32 0.44 2.4347 0.46934 1.1147 1.2613 1.936 0.82133 0.82133 1.9067 1.2907 1.0853 0.46934 2.3467 0.46934 2.7573 0 4.9573-2.3467v6.8053l-0.58666 0.20533q-1.32 0.46933-2.464 0.67467-1.144 0.23466-2.2587 0.23466-2.288 0-4.4-0.85066-2.0827-0.88-3.696-2.4347-1.584-1.584-2.552-3.7253-0.968-2.1707-0.968-4.7227t0.93866-4.664q0.968-2.1413 2.552-3.6667 1.6133-1.5547 3.7253-2.4053 2.112-0.88 4.4293-0.88 1.32 0 2.5813 0.29333 1.2907 0.264 2.6987 0.85066z"/>
    <path d="m399.4 134.37v12.027q0 0.968 0.0587 1.9947 0.088 0.99733 0.44 1.8187 0.38133 0.82133 1.1733 1.3493 0.792 0.49867 2.2293 0.49867t2.2-0.49867q0.792-0.528 1.1733-1.3493 0.38134-0.82134 0.44-1.8187 0.088-1.0267 0.088-1.9947v-12.027h5.72v12.819q0 5.1627-2.376 7.5387-2.3467 2.376-7.2453 2.376t-7.2747-2.376q-2.376-2.376-2.376-7.5387v-12.819z"/>
    <path d="m425.93 139.24v17.248h-5.7493v-17.248h-4.7227v-4.8693h15.195v4.8693z"/>
    <path d="m437.98 145.43q0 1.32 0.49866 2.4347 0.49867 1.1147 1.3493 1.936 0.85067 0.82133 1.9653 1.2907 1.144 0.44 2.4053 0.44t2.376-0.44q1.144-0.46934 1.9947-1.2907 0.88-0.82133 1.3787-1.936 0.49867-1.1147 0.49867-2.4347t-0.49867-2.4347q-0.49866-1.1147-1.3787-1.936-0.85067-0.82133-1.9947-1.2613-1.1147-0.46934-2.376-0.46934t-2.4053 0.46934q-1.1147 0.44-1.9653 1.2613-0.85066 0.82133-1.3493 1.936-0.49866 1.1147-0.49866 2.4347zm-6.0133 0q0-2.464 0.90933-4.576 0.90933-2.1413 2.5227-3.7253 1.6133-1.584 3.8427-2.464 2.2587-0.90933 4.9573-0.90933 2.6693 0 4.928 0.90933 2.2587 0.88 3.872 2.464 1.6427 1.584 2.552 3.7253 0.90934 2.112 0.90934 4.576t-0.90934 4.6053q-0.90933 2.112-2.552 3.696-1.6133 1.584-3.872 2.4933-2.2587 0.88-4.928 0.88-2.6987 0-4.9573-0.88-2.2293-0.90933-3.8427-2.4933-1.6133-1.584-2.5227-3.696-0.90933-2.1413-0.90933-4.6053z"/>
    <path d="m463.08 143.26h-3.1387l-0.792-8.888h4.7227z"/>
    <path d="m479.71 140.03q-0.93866-0.76266-1.8773-1.1147-0.93866-0.38134-1.8187-0.38134-1.1147 0-1.8187 0.528t-0.704 1.3787q0 0.58666 0.352 0.968 0.352 0.38133 0.90933 0.67466 0.58667 0.264 1.2907 0.46934 0.73333 0.20533 1.4373 0.44 2.816 0.93866 4.1067 2.5227 1.32 1.5547 1.32 4.0773 0 1.7013-0.58666 3.08-0.55734 1.3787-1.672 2.376-1.0853 0.968-2.6987 1.496-1.584 0.55733-3.608 0.55733-4.1947 0-7.7733-2.4933l2.464-4.6347q1.2907 1.144 2.552 1.7013t2.4933 0.55733q1.408 0 2.0827-0.64533 0.704-0.64533 0.704-1.4667 0-0.49867-0.176-0.85067-0.176-0.38133-0.58666-0.67466-0.41067-0.32267-1.0853-0.58667-0.64533-0.264-1.584-0.58667-1.1147-0.352-2.2-0.76266-1.056-0.44-1.9067-1.144-0.82133-0.704-1.3493-1.76-0.49866-1.0853-0.49866-2.728t0.528-2.9627q0.55733-1.3493 1.5253-2.288 0.99733-0.968 2.4053-1.496 1.4373-0.528 3.1973-0.528 1.6427 0 3.432 0.46933 1.7893 0.44 3.432 1.32z"/>
    <path d="m218.83 164.22v2.6953q-1.9726-1.6504-4.082-1.6504-2.3242 0-3.916 1.6699-1.6016 1.6602-1.6016 4.0625 0 2.373 1.6016 4.0039t3.9258 1.6309q1.2012 0 2.041-0.39063 0.46875-0.19531 0.9668-0.52734 0.50781-0.33203 1.0644-0.80078v2.7441q-1.9531 1.1035-4.1016 1.1035-3.2324 0-5.5176-2.2559-2.2754-2.2754-2.2754-5.4883 0-2.8809 1.9043-5.1367 2.3438-2.7637 6.0644-2.7637 2.0312 0 3.9258 1.1035z"/>
    <path d="m227.42 170.88q0-3.1836 2.334-5.4688 2.3242-2.2852 5.5859-2.2852 3.2227 0 5.5273 2.3047 2.3145 2.3047 2.3145 5.5371 0 3.252-2.3242 5.5176-2.334 2.2754-5.6348 2.2754-2.9199 0-5.2441-2.0215-2.5586-2.2363-2.5586-5.8594zm2.2949 0.0293q0 2.5 1.6797 4.1113 1.6699 1.6113 3.8574 1.6113 2.373 0 4.0039-1.6406 1.6309-1.6602 1.6309-4.043 0-2.4121-1.6113-4.043-1.6016-1.6406-3.9648-1.6406-2.3535 0-3.9746 1.6406-1.6211 1.6211-1.6211 4.0039z"/>
    <path d="m257.73 172.06 4.668 6.4258h-2.7832l-4.3066-6.1719h-0.41016v6.1719h-2.2754v-15.078h2.666q2.9883 0 4.3164 1.123 1.4648 1.25 1.4648 3.3008 0 1.6016-0.91797 2.7539-0.91797 1.1524-2.4219 1.4746zm-2.832-1.7285h0.72266q3.2324 0 3.2324-2.4707 0-2.3144-3.1445-2.3144h-0.81055z"/>
    <path d="m276.32 172.06 4.668 6.4258h-2.7832l-4.3066-6.1719h-0.41015v6.1719h-2.2754v-15.078h2.666q2.9883 0 4.3164 1.123 1.4648 1.25 1.4648 3.3008 0 1.6016-0.91797 2.7539-0.91797 1.1524-2.4219 1.4746zm-2.832-1.7285h0.72265q3.2324 0 3.2324-2.4707 0-2.3144-3.1445-2.3144h-0.81054z"/>
    <path d="m298.11 165.55h-6.0449v3.623h5.8691v2.1387h-5.8691v5.0391h6.0449v2.1387h-8.3203v-15.078h8.3203z"/>
    <path d="m316.19 165.66-1.8457 1.0938q-0.51758-0.89843-0.98633-1.1719-0.48828-0.3125-1.2598-0.3125-0.94726 0-1.5723 0.53711-0.625 0.52734-0.625 1.3281 0 1.1035 1.6406 1.7774l1.5039 0.61523q1.8359 0.74219 2.6855 1.8164 0.84961 1.0644 0.84961 2.6172 0 2.0801-1.3867 3.4375-1.3965 1.3672-3.4668 1.3672-1.9629 0-3.2422-1.1621-1.2598-1.1621-1.5723-3.2715l2.3047-0.50781q0.15625 1.3281 0.54688 1.8359 0.70312 0.97657 2.0508 0.97657 1.0644 0 1.7676-0.71289 0.70312-0.7129 0.70312-1.8066 0-0.43945-0.12695-0.80078-0.11719-0.37109-0.38086-0.67382-0.25391-0.3125-0.66406-0.57618-0.41016-0.27343-0.97657-0.51757l-1.4551-0.60547q-3.0957-1.3086-3.0957-3.8281 0-1.6992 1.2988-2.8418 1.2988-1.1523 3.2324-1.1523 2.6074 0 4.0723 2.5391z"/>
    <path d="m328.17 172.37v6.123h-2.2754v-15.078h2.5781q1.8945 0 2.8613 0.26367 0.97656 0.26367 1.7188 0.9961 1.2988 1.2695 1.2988 3.2031 0 2.0703-1.3867 3.2812t-3.7402 1.2109zm0-2.1094h0.84961q3.1348 0 3.1348-2.4121 0-2.334-3.2324-2.334h-0.75195z"/>
    <path d="m342.52 170.88q0-3.1836 2.334-5.4688 2.3242-2.2852 5.5859-2.2852 3.2227 0 5.5274 2.3047 2.3144 2.3047 2.3144 5.5371 0 3.252-2.3242 5.5176-2.334 2.2754-5.6348 2.2754-2.9199 0-5.2441-2.0215-2.5586-2.2363-2.5586-5.8594zm2.2949 0.0293q0 2.5 1.6797 4.1113 1.6699 1.6113 3.8574 1.6113 2.373 0 4.0039-1.6406 1.6309-1.6602 1.6309-4.043 0-2.4121-1.6113-4.043-1.6016-1.6406-3.9648-1.6406-2.3535 0-3.9746 1.6406-1.6211 1.6211-1.6211 4.0039z"/>
    <path d="m367.71 178.49v-16.104l10.996 11.504v-10.479h2.2754v15.996l-10.996-11.475v10.557z"/>
    <path d="m391.13 178.49v-15.078h3.1641q2.2754 0 3.5938 0.44922 1.416 0.43945 2.5684 1.4941 2.334 2.1289 2.334 5.5957 0 3.4766-2.4316 5.625-1.2207 1.0742-2.5586 1.4941-1.25 0.41992-3.5449 0.41992zm2.2754-2.1387h1.0254q1.5332 0 2.5488-0.32226 1.0156-0.3418 1.8359-1.084 1.6797-1.5332 1.6797-3.9941 0-2.4805-1.6602-4.0234-1.4941-1.377-4.4043-1.377h-1.0254z"/>
    <path d="m420.54 165.55h-6.0449v3.623h5.8691v2.1387h-5.8691v5.0391h6.0449v2.1387h-8.3203v-15.078h8.3203z"/>
    <path d="m430.09 178.49v-16.104l10.996 11.504v-10.479h2.2754v15.996l-10.996-11.475v10.557z"/>
    <path d="m464.81 164.22v2.6953q-1.9727-1.6504-4.082-1.6504-2.3242 0-3.916 1.6699-1.6016 1.6602-1.6016 4.0625 0 2.373 1.6016 4.0039t3.9258 1.6309q1.2012 0 2.041-0.39063 0.46875-0.19531 0.96679-0.52734 0.50782-0.33203 1.0645-0.80078v2.7441q-1.9531 1.1035-4.1016 1.1035-3.2324 0-5.5176-2.2559-2.2754-2.2754-2.2754-5.4883 0-2.8809 1.9043-5.1367 2.3438-2.7637 6.0645-2.7637 2.0312 0 3.9258 1.1035z"/>
    <path d="m482.57 165.55h-6.0449v3.623h5.8691v2.1387h-5.8691v5.0391h6.0449v2.1387h-8.3203v-15.078h8.3203z"/>
   </g>
  </g>
 </g>
 <metadata>
  <rdf:RDF>
   <cc:Work rdf:about="">
    <dc:title>Zacuto's Correspondence Project</dc:title>
   </cc:Work>
  </rdf:RDF>
 </metadata>
</svg>