<!-- Created with Inkscape (http://www.inkscape.org/) --><svg xmlns="http://www.w3.org/2000/svg" xmlns:cc="http://creativecommons.org/ns#" xmlns:inkscape="http://www.inkscape.org/namespaces/inkscape" xmlns:svg="http://www.w3.org/2000/svg" xmlns:rdf="http://www.w3.org/1999/02/22-rdf-syntax-ns#" xmlns:sodipodi="http://sodipodi.sourceforge.net/DTD/sodipodi-0.dtd" xmlns:dc="http://purl.org/dc/elements/1.1/" width="395.64117" height="82.722633" viewBox="0 0 261.70015 54.717581" version="1.1" id="svg5" sodipodi:docname="logo-zacuto-correspondence-3.svg" inkscape:version="1.1.1 (c3084ef, 2021-09-22)">
  <title id="title1814">Zacuto's Correspondence Project</title>
  <sodipodi:namedview id="namedview20" pagecolor="#ffffff" bordercolor="#666666" borderopacity="1.0" inkscape:pageshadow="2" inkscape:pageopacity="0.0" inkscape:pagecheckerboard="false" inkscape:document-units="mm" showgrid="false" inkscape:zoom="1.6748611" inkscape:cx="282.11295" inkscape:cy="43.884236" inkscape:window-width="1440" inkscape:window-height="855" inkscape:window-x="12" inkscape:window-y="23" inkscape:window-maximized="0" inkscape:current-layer="layer3" units="px"/>
  <defs id="defs2">
    <linearGradient id="linearGradient4135" inkscape:swatch="solid">
      <stop style="stop-color:#333333;stop-opacity:1;" offset="0" id="stop4133"/>
    </linearGradient>
    <rect x="205.8848" y="89.515129" width="562.15497" height="213.04601" id="rect3465"/>
  </defs>
  <g id="layer1" transform="translate(-11.931177,-24.029381)">
    <g aria-label="DIGITAL CORPUS OF  MOSES ZACUTO'S CORRESPONDENCE " transform="matrix(0.66115535,0,0,0.66115535,-46.965124,-44.012931)" id="text3463" style="font-size:40px;line-height:0;white-space:pre;shape-inside:url(#rect3465);fill:#333333"/>
    <g inkscape:groupmode="layer" id="layer2" inkscape:label="Layer 1">
      <path id="path2390" style="fill:#d40000;stroke-width:1.70754;stroke-linecap:square;stroke-linejoin:bevel;stroke-miterlimit:2;paint-order:markers stroke fill" d="m 60.511008,24.029815 c -0.460799,-0.0158 -1.230527,0.402631 -1.587289,0.715677 -0.127619,0.111982 -0.208285,0.267868 -0.312513,0.401893 -0.08894,0.196896 -0.162372,0.416642 -0.192706,0.63137 -0.01732,0.12254 -0.002,0.248536 -0.02473,0.370197 -0.03268,0.175492 -0.178045,0.408531 -0.256097,0.552765 -0.224711,0.526741 -0.06566,0.192226 -0.361957,0.720746 -0.06802,0.121336 -0.121014,0.252116 -0.200316,0.366393 -0.195365,0.281538 -0.489233,0.487282 -0.606012,0.82344 -0.02631,0.09586 -0.06689,0.189171 -0.07924,0.287792 -0.01816,0.145042 0.04195,0.302195 -0.01202,0.438026 -0.100719,0.253373 -0.467702,0.330164 -0.576851,0.580022 -0.106265,0.243239 0.139566,0.557723 -0.05325,0.79428 -0.326256,0.173103 -0.425185,0.181932 -0.659257,0.502686 -0.282934,0.387707 -0.10162,0.347488 -0.339773,0.760683 -0.457914,0.794492 -0.126796,-0.134208 -0.387315,0.738496 -0.246032,0.605207 -0.229249,0.27653 0.09826,0.980645 -0.05053,0.232151 -0.968507,0.197858 -1.007272,0.225036 -0.233409,0.163629 -0.04281,0.97923 -0.02916,1.081437 -0.432025,0.147752 -0.664195,0.159777 -0.976208,0.502685 -0.10517,0.115579 -0.166437,0.26485 -0.241517,0.401894 -0.07414,0.135312 -0.156281,0.26852 -0.20602,0.414571 -0.104898,0.308035 -0.07725,0.652586 -0.225669,0.950221 -0.204409,0.900877 0.105822,0.123953 -0.557834,0.645313 -0.185962,0.146094 -0.188986,0.492487 -0.296032,0.671303 -0.07741,0.12931 -0.199321,0.225902 -0.297302,0.340406 -0.09453,0.11047 -0.186695,0.222712 -0.280184,0.334064 -0.27679,0.336774 -0.341315,0.354424 -0.486837,0.76956 -0.05391,0.153778 -0.07979,0.31588 -0.118538,0.47416 -0.04049,0.165395 0.002,0.376675 -0.119175,0.496343 -0.142371,0.140641 -0.403922,0.07517 -0.571148,0.185102 -0.111017,0.07298 -0.144818,0.2228 -0.217427,0.334065 -0.415217,0.659252 0.01731,0.02255 -0.51473,0.649748 -0.132634,0.156359 -0.283508,0.367641 -0.42091,0.586364 -0.08821,0.01337 -0.172607,0.05447 -0.261801,0.05769 -0.123102,0.0044 -0.245123,-0.02484 -0.367664,-0.03739 -0.395814,0.03283 -0.461254,0.533881 -0.886196,0.497612 -0.158403,-0.01355 -0.281316,-0.159296 -0.437392,-0.189539 -0.199999,-0.03877 -0.650134,0.0654 -0.841189,0.101424 -0.532246,0.304031 -1.126739,0.462279 -1.696323,0.676376 -0.596765,0.224319 -0.08492,0.08474 -0.762585,0.23708 -0.301122,0.03685 -0.488838,0.333532 -0.768923,0.411404 -0.140005,0.03891 -0.290795,0.02802 -0.435491,0.01458 -0.136669,-0.01266 -0.264024,-0.09398 -0.401261,-0.09192 -0.116385,0.0014 -0.219658,0.08126 -0.334066,0.102694 -0.112049,0.021 -0.227311,0.01556 -0.34104,0.02346 -0.519857,-0.100428 -0.09717,-0.04109 -0.543254,-0.05262 -0.06641,-0.0014 -0.134525,-0.03538 -0.198412,-0.01711 -0.204658,0.05837 -0.342175,0.32166 -0.464649,0.447536 -0.0932,0.09579 -0.201059,0.175811 -0.301738,0.263703 -0.104437,-0.03165 -0.231218,-0.02299 -0.313148,-0.09508 -0.107797,-0.09486 -0.12207,-0.264109 -0.217429,-0.371466 -0.06983,-0.07863 -0.636635,-0.386218 -0.746737,-0.380976 -0.06674,0.0034 -0.111181,0.07379 -0.166716,0.110934 -0.228343,0.239741 -0.31045,0.481897 -0.678909,0.405061 -0.09992,-0.02086 -0.170274,-0.112917 -0.259267,-0.162912 -0.0919,-0.05162 -0.182631,-0.108314 -0.28272,-0.141361 -0.852014,-0.281311 0.06992,0.154554 -0.716943,-0.25039 -0.516566,-0.222696 -0.74063,-0.303328 -1.278582,-0.04627 -0.182624,0.08727 -0.319408,0.285332 -0.5198,0.313783 -0.302599,0.04293 -0.77937,-0.417329 -0.950854,-0.553397 -0.359211,-0.045 -0.671816,0.171026 -1.015511,0.203481 -0.159781,0.01511 -0.319503,-0.03351 -0.479864,-0.03994 -0.462465,-0.0185 -0.931345,0.01331 -1.393952,0.02091 -0.418199,-0.128061 -0.608281,0.349932 -0.94705,0.409501 -0.244758,0.04303 -0.754984,-0.294731 -0.973674,-0.32139 -0.140837,-0.01718 -0.277159,0.06074 -0.417742,0.07988 -0.143801,0.01958 -0.289602,0.02407 -0.434223,0.03614 -0.143118,-0.03822 -0.282128,-0.09663 -0.429152,-0.114738 -0.143115,-0.01761 -0.288343,0.01672 -0.432322,0.0089 -0.471852,-0.0259 -0.286826,-0.073 -0.775897,-0.164814 -0.386558,-0.07257 -0.462341,-0.03173 -0.866544,0.01331 -0.489612,0.222248 -0.517699,-0.495549 -0.850063,-0.533112 -0.656137,-0.07417 -0.859119,1.605517 -1.502349,0.775895 -0.214103,-0.276145 -0.283052,-0.639042 -0.424714,-0.95846 -0.348215,0.0679 -0.707131,0.07261 -1.055448,0.140093 -0.157995,0.03062 -0.306714,0.108883 -0.467185,0.121077 -0.241749,0.01835 -0.59559,-0.113775 -0.827243,-0.149603 -0.134021,-0.02076 -0.270471,-0.02086 -0.405697,-0.03106 -0.114274,0.0025 -0.660796,0.01013 -0.781603,0.02789 -0.121348,0.01786 -0.236182,0.06761 -0.356887,0.08938 -0.11004,0.01987 -0.224096,0.0121 -0.333433,0.0355 -0.112656,0.02409 -0.217964,0.07574 -0.328994,0.106494 -0.104942,0.0291 -0.212069,0.04861 -0.31822,0.0729 -0.102189,-1.4e-4 -0.205135,0.0095 -0.306808,-6.39e-4 -0.09995,-0.01011 -0.196521,-0.04246 -0.295399,-0.06022 -0.229291,-0.04117 -0.457755,-0.08973 -0.689686,-0.111567 -0.11651,-0.01099 -0.540582,-0.01598 -0.679544,-0.01838 -0.480099,0.01453 -0.925321,0.19332 -1.352747,0.397458 -0.338828,0.161827 -0.231756,0.09519 -0.446901,0.25483 -0.299108,0.114806 -0.607991,0.155593 -0.851331,0.385412 -0.234584,0.221544 0.0514,0.08807 -0.216162,0.187001 -0.06817,0.08512 -0.124446,0.181684 -0.20475,0.255463 -0.245013,0.22509 -0.307527,-0.01129 -0.383511,0.493808 -0.01661,0.110392 0.08367,0.21529 0.07353,0.32646 -0.0048,0.05241 -0.148959,0.07203 -0.112834,0.110301 0.06909,0.07319 0.1938,0.05233 0.290961,0.07861 0.120087,-0.245778 0.185232,-0.197822 0.228204,-0.02092 0.02213,0.03306 0.03295,0.06852 0.04437,0.10396 l -0.02155,-0.0114 c 0.0053,0.03418 0.0094,0.07779 0.01395,0.117272 -5.89e-4,0.0013 -0.0019,0.0024 -0.0026,0.0038 7.36e-4,-0.0011 0.0018,-0.0021 0.0026,-0.0031 0.0551,0.48527 0.05613,1.324742 0.176858,1.698225 0.03089,0.09555 0.14954,-0.13339 0.224402,-0.200315 0.146641,0.01383 0.293715,0.01274 0.439928,0.01078 0.104067,0.01058 0.157674,0.01443 0.23391,0.02219 0.0012,0.0073 0.0012,0.01289 0.0026,0.02028 0.003,0.01712 0.01814,0.003 0.03487,-0.01648 0.403946,0.03927 0.486411,-0.01876 0.690954,-0.375907 0.0025,-4.73e-4 0.0051,-1.39e-4 0.0076,-6.37e-4 0.0021,-4.35e-4 -0.0034,-0.0033 -0.0038,-0.005 l 0.0031,-0.0057 c 0.147012,0.115546 0.224089,0.139453 0.108397,0.353084 -0.01031,0.01903 -0.05218,-0.01981 -0.06466,-0.0019 -0.02267,0.03209 -0.01104,0.07836 -0.01648,0.117272 0.03891,-0.03082 0.07022,-0.07493 0.116637,-0.09255 0.06076,-0.02306 0.128688,-0.01868 0.193341,-0.02536 0.01989,-0.002 0.04325,0.0091 0.06022,-0.0012 0.03116,-0.01948 0.04278,-0.06166 0.07353,-0.08177 0.153216,-0.100243 0.335344,-0.151371 0.480498,-0.266238 0.256022,-0.100549 0.50703,-0.229123 0.741666,-0.373369 0.458171,-0.197616 0.887182,-0.478694 1.409799,-0.425349 0.105943,0.02405 0.213499,0.0427 0.318219,0.07164 0.11039,0.03047 0.214501,0.08178 0.32646,0.105861 0.107907,0.02321 0.221085,0.01548 0.329629,0.0355 0.118243,0.02179 0.23047,0.07154 0.34928,0.09001 0.09588,0.01492 0.658559,0.03226 0.749907,0.0355 0.126391,-0.0071 0.253592,-0.0047 0.379073,-0.02155 0.220532,-0.02939 0.534312,-0.146555 0.764487,-0.109665 0.145545,0.02336 0.273007,0.112625 0.413304,0.157839 0.296025,0.0954 0.607309,0.139638 0.896338,0.259267 0.182323,-0.29061 0.297211,-0.637143 0.547058,-0.87225 0.726792,-0.6839 0.685157,1.019541 1.245618,1.084607 0.349654,0.04058 0.560503,-0.693008 1.010441,-0.306174 0.399517,0.133144 0.490399,0.197652 0.922327,0.202216 0.145706,0.0014 0.289248,-0.03946 0.434858,-0.04501 0.451084,-0.01712 0.883504,0.129421 1.326758,-0.01268 0.157605,0.0263 0.315925,0.0487 0.47289,0.07861 0.174363,0.03322 0.344132,0.124407 0.521068,0.110298 0.255527,-0.02036 0.692252,-0.371501 0.973041,-0.322655 0.338023,0.05881 0.527844,0.535559 0.944514,0.408235 0.45434,0.0074 0.914345,0.03846 1.368596,0.02472 0.154421,-0.005 0.308731,-0.05146 0.462114,-0.03296 0.316522,0.03812 0.595562,0.255531 0.926765,0.236444 0.121673,-0.0946 0.609232,-0.560681 0.869081,-0.474793 0.161906,0.05351 0.221915,0.259591 0.343575,0.379074 0.398258,0.391132 0.481402,0.302095 1.011074,0.278916 1.113333,-0.09423 -0.17188,-0.01395 0.799985,0.0026 0.139649,0.0025 0.279938,-0.0081 0.418376,-0.02663 0.19589,-0.0262 0.455693,-0.178735 0.638339,0.02345 0.108726,0.120373 0.146078,0.288866 0.219331,0.43359 0.11123,0.05867 0.21104,0.15017 0.334067,0.176226 0.08464,0.01791 0.170207,-0.03058 0.254194,-0.05135 0.06883,-0.01703 0.622855,-0.17738 0.660527,-0.199678 0.899069,-0.532122 -0.01762,-0.213883 0.737862,-0.437393 0.112722,0.08611 0.228267,0.168585 0.337871,0.258634 0.119286,0.098 0.216627,0.224477 0.348012,0.305538 0.280429,0.173016 0.337418,0.105868 0.623759,0.06213 0.469232,-0.07167 0.180286,0.006 0.671937,-0.174956 0.14895,-0.02591 0.296679,-0.06096 0.446901,-0.07797 0.171234,-0.01944 0.35129,0.01963 0.515997,-0.03106 0.160389,-0.04935 0.282336,-0.182791 0.431054,-0.260532 0.133377,-0.06973 0.265571,-0.152559 0.413305,-0.181298 0.321467,-0.06253 0.661758,0.07145 0.982547,-0.02663 1.4462,-0.442902 -0.572368,0.158917 1.016147,-0.257365 0.08087,-0.02119 0.158808,-0.05228 0.238347,-0.07797 -0.05717,0.06036 -0.114111,0.120577 -0.159744,0.189535 -0.203704,0.307827 -0.296151,0.681549 -0.541352,0.96607 -0.515652,1.042584 0.04124,0.06937 -0.711873,0.967969 -0.486937,0.581007 -0.743678,1.347911 -1.37113,1.815496 -0.10349,0.16901 -0.293004,0.451499 -0.344844,0.647847 -0.01444,0.0547 0.04329,0.116941 0.02028,0.168618 -0.03712,0.08338 -0.126557,0.131559 -0.185099,0.201582 -0.556545,0.665702 0.03747,0.0081 -0.492542,0.58192 -0.06307,0.07907 -0.116625,0.166979 -0.189537,0.23708 -0.226915,0.218158 -0.319134,0.187972 -0.457678,0.431055 -0.08058,0.141392 -0.06282,0.252341 -0.167984,0.380976 -0.04258,0.05209 -0.105229,0.08358 -0.157841,0.125513 -0.248448,0.382757 0.0087,-0.04666 -0.212992,0.465283 -0.03232,0.07465 -0.08001,0.141411 -0.119807,0.212363 -0.157044,0.279971 -0.28774,0.56692 -0.566075,0.752438 -0.112531,0.04632 -0.235061,0.07373 -0.33787,0.138825 -0.133897,0.08478 -0.456459,0.420946 -0.554664,0.545159 -0.179833,0.227451 -0.298428,0.502064 -0.49381,0.716305 -0.07732,0.08478 -0.180493,0.14205 -0.270677,0.212996 -0.598932,0.473276 0.14303,-0.146221 -0.432321,0.457673 -0.07857,0.08247 -0.191469,0.128423 -0.265605,0.214894 -0.08004,0.09336 -0.117925,0.216812 -0.190171,0.316315 -0.202977,0.279574 -0.329669,0.382885 -0.571147,0.615521 -0.284396,0.270297 -0.545995,0.561057 -0.829777,0.831682 -0.08917,0.08503 -0.200461,0.14888 -0.273847,0.247857 -0.129821,0.175096 -0.131662,0.424818 -0.284621,0.588893 l -0.282087,0.192706 c -0.102043,0.04715 -0.212736,0.07948 -0.306175,0.141995 -0.291732,0.195169 -0.303576,0.311316 -0.505854,0.599673 -0.299142,0.426437 -0.272727,0.372605 -0.629465,0.767019 -0.179448,0.17591 -0.500078,0.529914 -0.753076,0.628829 -0.146212,0.05717 -0.322821,0.003 -0.466552,0.06593 -0.21698,0.09532 -0.494895,0.569707 -0.749273,0.673842 -0.08268,0.0034 -0.168898,-0.01521 -0.247856,0.0095 -0.09533,0.02989 -0.172441,0.10131 -0.2599,0.149601 -0.09393,0.05187 -0.19986,0.08427 -0.283989,0.150871 -0.08534,0.06756 -0.118402,0.196828 -0.21616,0.244688 -0.10379,0.05081 -0.266069,-0.05353 -0.345477,0.03042 -0.111512,0.117893 -0.08497,0.313091 -0.127415,0.469724 -0.06507,0.117432 -0.130174,0.235011 -0.195241,0.352443 -0.09736,0.06048 -0.226052,0.08773 -0.29223,0.181297 -0.08995,0.127182 -0.07157,0.307278 -0.148966,0.442468 -0.05606,0.09792 -0.417553,0.386594 -0.516631,0.424714 -0.104732,0.04028 -0.222698,0.02807 -0.334066,0.04185 -0.464991,0.259108 -0.195352,0.185488 -0.828511,0.132485 -0.10107,0.04455 -0.05226,0.216489 -0.103326,0.314417 -0.04575,0.08772 -0.136424,0.146406 -0.182564,0.233912 -0.262629,0.498089 0.09567,0.32716 -0.550228,0.405697 -0.120388,0.07051 -0.244798,0.133417 -0.36069,0.211091 -0.114265,0.07658 -0.19197,0.232494 -0.328361,0.250389 -0.214898,0.02821 -0.422343,-0.105671 -0.63834,-0.123609 -0.195365,-0.01624 -0.417327,-0.07492 -0.587627,0.02218 -0.153449,0.08749 -0.378828,0.837049 -0.422179,0.963534 -0.128112,0.07339 -0.282785,0.113247 -0.384145,0.220595 -0.155773,0.164978 -0.172662,0.630468 -0.515997,0.647853 -0.238722,0.01207 -0.448922,-0.185214 -0.68715,-0.204753 -0.18831,-0.01545 -0.405054,0.187206 -0.537549,0.290325 -0.118571,0.274197 -0.220085,0.362556 -0.535014,0.393022 -0.09303,0.009 -0.188593,-0.02752 -0.280185,-0.0089 -0.174189,0.03548 -0.303096,0.20615 -0.493176,0.202853 -0.09334,0.01163 -0.186464,0.02684 -0.280184,0.03484 -0.09676,0.0083 -0.197224,-0.01143 -0.290962,0.01394 -0.09632,0.0261 -0.16779,0.12065 -0.266239,0.136921 -0.251149,0.04151 -0.52893,-0.183658 -0.779066,-0.03612 -0.0032,-4.91e-4 -0.0056,-9.53e-4 -0.0089,-0.002 0.110494,-0.04974 0.233701,-0.107452 0.271311,-0.150239 0.476038,-0.541513 -0.192078,0.267065 0.168569,-0.24859 0.01612,-0.02306 -0.109966,-0.580395 -0.27847,-0.828397 L 19.295403,68.7658 18.493786,67.225498 c -0.440515,-0.333563 -1.334667,-0.569975 -1.777852,-0.39207 -0.266006,0.279864 -0.167147,-0.03042 -0.389216,0.249761 -0.173892,0.219417 -0.29648,0.593593 -0.372101,0.860837 -0.02889,0.04952 -0.290389,0.49595 -0.305541,0.530577 -0.03381,0.07728 -0.03092,0.168211 -0.06909,0.243421 -0.04579,0.09018 -0.133977,0.15463 -0.17876,0.245321 -0.07243,0.146676 -0.123068,0.452368 -0.154672,0.611081 -0.04189,0.18197 -0.0097,0.368316 -0.02726,0.551493 -0.0071,0.0738 -0.03437,0.144366 -0.04247,0.218059 -0.02561,0.232759 0.02255,0.264595 -0.07353,0.502687 -0.01992,0.526917 0.0662,0.98925 0.328361,1.457979 0.179199,0.320382 0.561059,0.659686 0.82344,0.915983 0.597171,0.288136 0.426086,0.250605 0.982548,0.37971 0.161314,0.03744 0.332424,0.04161 0.486837,0.101426 0.156282,0.06055 0.279603,0.187201 0.432956,0.254825 0.369633,0.163006 0.506327,0.142903 0.8919,0.17306 0.554259,0.06782 0.486141,0.09946 1.007906,0.02218 0.170285,-0.02522 0.335308,-0.0882 0.507121,-0.09888 0.174146,-0.0108 0.348634,0.05135 0.522335,0.03484 0.132456,-0.01256 0.827971,-0.235444 0.959729,-0.276381 0.271119,-0.13041 0.600554,-0.10387 0.87225,-0.233274 0.211303,-0.154816 0.429953,-0.334191 0.673204,-0.441201 0.128524,-0.05653 0.267557,-0.08457 0.399992,-0.131215 0.173931,-0.06126 0.346285,-0.128546 0.519166,-0.192711 0.196514,-0.131554 0.686417,-0.405318 0.763853,-0.673199 0.06861,-0.237343 -0.08626,-0.506196 -0.0095,-0.741035 0.109669,-0.33558 0.586711,-0.307528 0.801887,-0.453237 0.117602,-0.07964 0.180236,-0.220229 0.270042,-0.330266 0.06413,-0.005 0.868973,-0.04352 0.945149,-0.122976 0.16611,-0.173261 0.132389,-1.029236 0.195875,-1.172085 0.06055,-0.136239 0.237974,-0.179737 0.349281,-0.278916 0.100038,-0.08915 0.18939,-0.189733 0.283988,-0.284623 0.257149,-0.641454 -0.02598,-0.27168 0.546424,-0.452605 0.10789,-0.0341 0.191837,-0.122559 0.2973,-0.16355 0.117054,-0.04548 0.295907,0.01094 0.365128,-0.09381 -0.01567,-0.534153 -0.117882,-0.337056 0.191438,-0.63771 0.05458,-0.113173 0.0859,-0.240983 0.163547,-0.339769 0.05671,-0.07213 0.462083,-0.318583 0.538817,-0.32773 0.140914,-0.01678 0.280382,0.09513 0.419644,0.06783 0.116601,-0.02286 0.193638,-0.138227 0.290327,-0.207284 l 0.386047,-0.02787 c 0.14891,0.03597 0.300988,0.154443 0.4469,0.107766 0.115288,-0.0369 0.09315,-0.234968 0.187636,-0.310614 0.07936,-0.06354 0.20131,-0.03754 0.295399,-0.07606 0.06861,-0.02807 0.121993,-0.08432 0.186366,-0.121074 0.329897,-0.188382 0.09923,0.02237 0.406332,-0.354985 0.273992,-0.253363 0.733603,-0.179046 1.011709,-0.417109 0.125607,-0.107526 0.15787,-0.296733 0.276381,-0.412036 0.193184,-0.187942 0.701175,-0.400735 0.928667,-0.507755 0.648305,-0.300511 0.370535,-0.182976 1.014878,-0.43993 0.382211,-0.152418 0.530037,-0.159939 0.821537,-0.467187 0.119928,-0.126412 0.201205,-0.284687 0.304908,-0.424714 0.08815,-0.119038 0.180473,-0.234953 0.270675,-0.35245 0.187744,-0.230854 0.499389,-0.308096 0.707436,-0.511557 0.08852,-0.08657 0.138609,-0.205461 0.212358,-0.304906 0.214204,-0.288853 0.459935,-0.55328 0.686516,-0.83232 0.197665,-0.362968 0.567175,-0.446656 0.841188,-0.688415 0.09108,-0.08036 0.140537,-0.199247 0.226937,-0.284618 0.602301,-0.595119 -0.04903,0.234232 0.515997,-0.54199 0.06898,-0.10545 0.122931,-0.222715 0.207286,-0.316315 0.258195,-0.286512 0.307116,-0.197805 0.591431,-0.432325 0.119053,-0.09819 0.469884,-0.4707 0.550227,-0.610443 0.07628,-0.132672 0.114037,-0.28401 0.171154,-0.425985 0.07603,-0.104233 0.139951,-0.219045 0.228204,-0.313151 0.07983,-0.08512 0.184319,-0.142884 0.271945,-0.219963 0.163896,-0.144163 0.29684,-0.324431 0.473525,-0.452604 0.49028,-0.355658 -0.01378,0.162923 0.436759,-0.350549 0.123586,-0.447801 0.593896,-0.689501 0.702998,-1.142291 0.144384,-0.599221 -0.236187,0.196426 0.110932,-0.443733 0.170901,-0.353445 0.01332,-0.08706 0.225036,-0.334068 0.05839,-0.06812 0.101733,-0.149179 0.164814,-0.212991 0.135101,-0.136666 0.456357,-0.378257 0.593967,-0.541351 0.09632,-0.114164 0.173673,-0.242985 0.260534,-0.364494 0.153846,-0.523961 0.493644,-0.938993 0.80569,-1.373667 0.122131,-0.170127 0.260502,-0.330883 0.361958,-0.514097 0.554736,-1.001748 -0.106723,-0.222113 0.640875,-0.993326 0.198725,-0.306921 0.503841,-0.523492 0.723916,-0.811395 0.09271,-0.121278 0.139564,-0.273897 0.235811,-0.392384 0.09564,-0.117737 0.22563,-0.203276 0.334068,-0.309346 0.342366,-0.334873 0.282099,-0.281009 0.552764,-0.639607 0.147854,-0.278591 0.249258,-0.480566 0.410135,-0.746103 0.09137,-0.150815 0.210712,-0.28629 0.282086,-0.447533 0.07746,-0.175015 0.06118,-0.387817 0.160377,-0.551495 0.09655,-0.159316 0.286657,-0.240748 0.406331,-0.383512 6.86e-4,-8.33e-4 0.0012,-0.0017 0.0019,-0.0026 0.318989,-0.01938 0.569372,-0.02022 0.884927,-0.107127 0.493575,-0.135931 0.908327,-0.527884 1.448466,-0.490008 0.112642,-0.01668 0.224069,-0.05401 0.337872,-0.05008 0.227467,0.0078 0.445745,0.107308 0.673205,0.115371 0.109217,0.0039 0.218077,-0.02604 0.327093,-0.01838 0.519556,0.03656 0.05305,0.10234 0.445002,0.02599 0.08376,-0.0288 0.166455,-0.062 0.251658,-0.08621 0.218383,-0.06205 0.245674,-0.02409 0.490005,-0.110301 0.107383,-0.03788 0.20218,-0.107188 0.309979,-0.143896 0.345673,-0.11771 0.323239,-0.07419 0.679544,-0.0089 0.725976,0.211836 0.01433,0.03478 0.763851,0.128681 0.214212,0.02684 0.580154,0.138233 0.798719,0.136288 0.102569,-9.53e-4 0.627631,-0.115243 0.73786,-0.13819 0.10674,0.01232 0.216282,0.01164 0.320756,0.03677 0.964083,0.231825 -0.366806,1.68e-4 0.549595,0.172425 0.264844,0.04978 0.257896,0.03108 0.526769,0.03677 0.101372,0.0025 0.202932,0.0067 0.304274,0.01015 0.215105,0.03361 0.427679,0.09484 0.645311,0.100788 0.107589,0.003 0.214006,-0.03516 0.321388,-0.02789 0.294923,0.01985 0.576038,0.156428 0.871618,0.133118 0.03037,0.05105 0.04033,0.07762 0.0805,0.141361 0.329804,0.523113 0.419612,0.808403 0.262943,1.433364 -0.08594,0.34279 -0.259111,0.545336 -0.525378,0.777687 -0.157093,0.233757 -0.456098,0.419884 -0.471623,0.701098 -0.05486,0.993683 0.907382,0.403756 0.245953,1.390147 -0.157946,0.235544 -0.446112,0.350393 -0.658626,0.538182 -0.625393,0.552631 -0.460946,0.324827 -0.662425,1.049744 0.131917,0.468996 0.247033,0.560668 0.045,1.028822 -0.07569,0.175405 -0.241709,0.301931 -0.314411,0.478597 -0.0576,0.139964 -0.03582,0.301364 -0.06719,0.449434 -0.06197,0.29268 -0.164105,0.56142 -0.261168,0.843095 -0.02851,0.105474 -0.05371,0.211797 -0.08557,0.316315 -0.0341,0.111824 -0.0817,0.219305 -0.112197,0.332164 -0.06382,0.236097 -0.08053,0.460504 -0.14073,0.697292 -0.270286,1.063209 0.02527,-0.284829 -0.180665,0.685884 0.05014,0.113585 0.05558,0.261453 0.150872,0.34104 0.16512,0.137903 0.397875,0.166122 0.584457,0.27321 0.15253,0.08754 0.641758,0.398945 0.70997,0.642146 0.02994,0.106686 0.02591,0.259162 -0.06213,0.326457 -0.195188,0.149233 -0.462471,0.167363 -0.693489,0.251027 -0.469974,0.299486 -0.440931,0.180263 -0.649746,0.704264 -0.05651,0.141799 -0.06654,0.299137 -0.125513,0.439931 -0.06128,0.146273 -0.17803,0.266316 -0.232646,0.415205 -0.141677,0.386275 -0.06362,0.434783 0.04691,0.803154 -0.228544,0.266399 0.39552,0.543535 0.263706,0.786671 -0.08061,0.148699 -0.327346,0.10656 -0.462751,0.207922 -0.196362,0.146998 -0.100386,0.561482 -0.08431,0.748639 -0.124777,0.123119 -0.161008,0.312822 -0.277646,0.441824 -0.309779,0.342621 -0.284741,0.134096 -0.484307,0.58066 -0.04843,0.108359 -0.06393,0.228313 -0.09698,0.342305 -0.03518,0.121388 -0.07185,0.242681 -0.107761,0.363862 -0.03636,0.343857 -0.405912,0.660468 -0.519802,0.955292 -0.14596,0.37784 -0.05009,0.372684 -0.05895,0.746103 -0.0025,0.111574 -0.02488,0.221886 -0.03739,0.332798 -0.01771,0.03587 -0.173124,0.370593 -0.235812,0.441828 -0.202941,0.230625 -0.349455,0.182054 -0.313145,0.540086 9.8e-5,0.07767 0.0025,0.154978 4.9e-4,0.232642 -0.008,0.355412 -0.291526,0.509433 -0.35815,0.846892 -0.01379,0.06973 -0.0039,0.142579 -0.0057,0.213628 -0.04294,0.09432 -0.06682,0.200046 -0.129316,0.28272 -0.05901,0.07806 -0.150853,0.124698 -0.226308,0.186999 -0.07745,0.0986 -0.158589,0.19377 -0.232006,0.295398 -0.361551,0.500533 0.06235,-0.05251 -0.256728,0.451338 -0.04666,0.07369 -0.107309,0.137937 -0.161013,0.206656 -0.207332,0.228898 -0.295219,0.526018 -0.434223,0.794277 -0.04316,0.08329 -0.106484,0.155371 -0.146431,0.240252 -0.03738,0.07943 -0.229239,0.651954 -0.24659,0.702994 -0.216883,0.361619 -0.08746,0.790916 -0.166716,1.18223 -0.0863,0.426084 -0.120067,0.43156 -0.311244,0.794912 -0.260062,0.280918 0.02246,0.69443 -0.143896,0.997763 -0.04509,0.08221 -0.151459,0.111622 -0.220599,0.174958 -0.195037,0.178668 -0.201314,0.210768 -0.34421,0.417109 -0.123531,0.195867 -0.08536,0.451751 -0.194608,0.652283 -0.02035,0.03734 -0.06627,0.05301 -0.09572,0.08368 -0.05195,0.0541 -0.07861,0.102535 -0.117272,0.164178 -0.01486,0.07162 -0.05579,0.142545 -0.04501,0.214894 0.01223,0.08214 0.07571,0.148261 0.110301,0.223766 0.0468,0.102157 0.09184,0.205075 0.13375,0.309342 0.09685,0.24093 0.190581,0.482913 0.267507,0.730893 0.194765,0.544806 0.325792,0.59167 0.848161,0.563536 0.578944,0.380833 0.490814,0.173225 0.948953,-0.04185 0.0111,-2.5e-4 0.01537,-9.53e-4 0.02663,-0.0014 0.04396,-9.53e-4 0.08139,-0.02154 0.117272,-0.04754 0.07521,-0.02302 0.0747,-0.02821 0.271311,-0.05895 0.06879,-0.01762 0.130472,-0.05878 0.200313,-0.07164 0.0865,-0.0159 0.176617,-0.0014 0.263707,-0.01394 0.282253,-0.03975 0.159609,-0.103311 0.274476,-0.03106 0.05772,-0.125174 0.08948,-0.183029 0.129948,-0.322022 0.0233,-0.07998 0.0291,-0.164776 0.05833,-0.242783 0.07157,-0.190994 0.249554,-0.338445 0.319485,-0.532475 0.02365,-0.09005 0.05599,-0.178796 0.071,-0.270679 0.01506,-0.09227 0.02866,-0.433061 0.045,-0.590163 0.07788,-0.129842 0.212892,-0.219335 0.303637,-0.341674 0.24164,-0.325766 0.289377,-0.495685 0.450705,-0.867177 0.453041,-1.005888 -0.06275,-0.01948 0.632003,-0.900777 0.111633,-0.141603 0.179801,-0.312381 0.27638,-0.464651 0.0835,-0.131637 0.17329,-0.25925 0.263073,-0.386677 0.07801,-0.110725 0.179517,-0.206651 0.240247,-0.327729 0.05442,-0.108497 0.06677,-0.233216 0.100155,-0.349916 0.141333,-0.254084 -0.02039,-0.607626 0.252096,-0.760588 0.09889,-0.05551 0.222357,-0.05583 0.320756,-0.112201 0.100691,-0.05769 0.174149,-0.15463 0.266871,-0.224404 0.406,-0.305496 0,0 0.429155,-0.368292 0.04028,-0.0823 0.06802,-0.171872 0.121073,-0.246591 0.199443,-0.280919 0.295508,-0.582977 0.563419,-0.788284 0.279977,-0.214545 0.302748,-0.243475 0.548324,-0.467819 0.148801,-0.3193 0.118841,-0.345673 0.389848,-0.57622 0.09076,-0.0772 0.213589,-0.115032 0.294132,-0.202848 0.06848,-0.07466 0,0 0.139458,-0.27004 0.337053,-0.652655 0.264334,0.231445 0.485572,-0.479861 0.07477,-0.235664 0.33665,-0.321458 0.457041,-0.517902 0.08154,-0.133061 0.265296,-0.325165 0.348843,-0.456973 0.161494,-0.254752 0.349337,-0.29296 0.56037,-0.496343 0.07636,-0.0736 0.130474,-0.166891 0.195876,-0.250394 0.376201,-0.211111 0.437584,-0.725132 0.759415,-0.990153 l 0.528673,-0.277651 c 0.263632,-0.270306 0.689635,-0.163734 0.978238,-0.409324 0.109704,-0.09336 0.242293,-0.159404 0.346108,-0.259265 0.486928,-0.468365 -0.243303,-0.345442 0.408602,-0.6498 0.198496,-0.315629 0.176013,-0.338229 0.457673,-0.569247 0.07888,-0.06469 0.173825,-0.10803 0.252931,-0.172421 0.08982,-0.07311 0.157539,-0.172373 0.252287,-0.238981 0.08248,-0.05798 0.182707,-0.08427 0.272583,-0.129949 0.1039,-0.05281 0.205968,-0.110441 0.30871,-0.16545 0.675756,-0.708812 -0.08795,0.07528 0.58509,-0.565438 0.09047,-0.08613 0.168737,-0.184755 0.261169,-0.268777 0.02321,-0.0211 0.477761,-0.371684 0.505856,-0.415838 0.07414,-0.116535 0.09395,-0.259899 0.140725,-0.389848 0.167918,-0.389092 0.677561,-0.37051 1.039872,-0.553349 0.04774,-0.02409 0.107133,-0.02905 0.145793,-0.06592 0.06307,-0.0602 0.09943,-0.143153 0.148968,-0.214893 0.09755,-0.192285 0.325074,-0.262667 0.446269,-0.429788 0.09099,-0.12547 0.09048,-0.312459 0.205385,-0.416477 0.108625,-0.09834 0.28272,-0.08257 0.415206,-0.14516 0.409587,-0.193491 0.373631,-0.238259 0.657988,-0.600939 0.630125,-0.212951 1.197811,-0.551783 1.715974,-0.966071 0.278798,-0.222906 0.528309,-0.480641 0.793016,-0.720112 0.387208,-0.158188 0.680133,-0.731487 1.035158,-0.917255 0.133207,-0.0697 0.300138,-0.05127 0.436127,-0.115371 0.135302,-0.06378 0.241577,-0.17566 0.363862,-0.261803 0.11591,-0.08166 0.233799,-0.161067 0.350549,-0.241517 0.139949,-0.08622 0.267224,-0.197063 0.419641,-0.258628 0.17068,-0.06894 0.364048,-0.06593 0.537549,-0.127417 0.700643,-0.248303 0.179227,-0.145366 0.781604,-0.508388 0.214079,-0.129012 0.423551,-0.149557 0.658622,-0.192711 0.206037,-0.222185 0.438767,-0.481529 0.697292,-0.674471 -0.08949,0.02891 -0.173727,0.04205 -0.226303,-0.02026 -0.158933,-0.188443 -0.225168,-0.254247 -0.362591,-0.411401 0.06197,0.0049 0.125852,0.01584 0.186367,0.01458 0.628391,0.372737 -0.09089,-0.04277 0.575581,0.306177 0.02257,-0.01324 0.04362,-0.0312 0.06656,-0.04313 0.08165,-0.04239 0.172353,-0.06382 0.258638,-0.09572 0.117,-0.05758 0.209256,0.07832 0.316315,0.06656 0.08489,-0.0093 0.191484,-0.14401 0.269408,-0.175593 0.0395,-0.016 0.0998,0.01712 0.126779,-0.01585 0.02993,-0.0366 0.002,-0.09472 0.0025,-0.141994 1.266003,-1.842467 1.429716,-1.307833 -1.128345,-3.868073 -0.05787,-0.05792 -0.862222,0.101344 -1.021851,0.238349 -0.07576,0.06502 -0.07989,0.184557 -0.138193,0.265605 -0.08626,0.119924 -0.19487,0.222329 -0.292228,0.333431 -0.05493,0.03662 -0.106108,0.08339 -0.160375,0.12171 0.102888,-0.137856 0.155415,-0.211141 0.285888,-0.394922 -0.03606,-0.02002 -0.06774,-0.07023 -0.107761,-0.06022 -0.03062,0.0076 -0.0039,0.06538 -0.0209,0.09192 -0.06572,0.102054 -0.083,-0.0021 -0.141363,0.114101 -0.229098,0.455867 -0.112279,0.283339 -0.125512,0.301105 -0.314109,0.04435 -0.404578,-0.139868 -0.690958,-0.169254 -0.275826,-0.02831 -0.652047,0.106926 -0.920424,0.176859 -0.49463,0.0098 -0.973937,0.136931 -1.433886,0.313782 -0.13911,0.01321 -0.282656,0.0177 -0.425347,0.01902 0.101456,-0.07781 0.204226,-0.153006 0.309342,-0.233273 0.697248,-0.526158 0.02168,0.0696 0.462114,-0.583825 0.06837,-0.101431 0.200478,-0.150634 0.262435,-0.256099 0.07201,-0.122573 0.04338,-0.2923 0.127418,-0.406963 0.114586,-0.156378 0.604947,-0.314837 0.747369,-0.370201 0.273554,-0.194676 0.569747,0.0099 0.848796,-0.03867 0.401015,-0.06972 0.319387,-0.210489 0.637704,-0.416473 0.121628,-0.0787 0.266405,-0.114426 0.394922,-0.181295 0.121564,-0.06325 0.235689,-0.138933 0.353719,-0.208554 0.612106,-0.589453 -0.06541,-7.37e-4 0.745466,-0.488107 0.511627,-0.30733 0.129492,-0.221773 0.64975,-0.46465 0.654496,-0.305548 0.196617,0.06908 0.679545,-0.406966 0.365756,-0.126666 0.655457,-0.365602 0.964167,-0.586359 0.123134,-0.08806 0.26375,-0.153098 0.375269,-0.255464 0.231072,-0.212101 0.334859,-0.436933 0.486205,-0.701093 0.08175,-0.111061 0.140107,-0.24428 0.245321,-0.333435 0.08172,-0.06923 0.201769,-0.07465 0.296031,-0.12551 0.104268,-0.05625 0.190538,-0.143237 0.297298,-0.194609 0.165355,-0.07957 0.490391,-0.139225 0.678911,-0.169253 0.701109,-0.574423 1.019873,-0.720269 0.960997,-2.148928 -0.02115,-0.5131 -0.397482,-0.960358 -0.71314,-1.365426 -0.05156,-0.06617 -0.863526,-0.568771 -1.093483,-0.657992 -0.15468,-0.06001 -0.319343,-0.08878 -0.479229,-0.133117 -0.407903,-0.06021 -0.792349,-0.288438 -1.208221,-0.309347 -0.340496,-0.01712 -0.367051,0.08511 -0.693489,0.157209 -0.137707,0.03042 -0.27981,0.03679 -0.419641,0.05515 -0.477987,-0.02159 -0.957833,-0.114401 -1.425647,0.03233 -0.248628,0.07799 -0.481682,0.198743 -0.723916,0.294763 -0.259094,0.118811 -0.444449,0.233131 -0.740397,0.24659 -0.154635,0.007 -0.30767,-0.0593 -0.462119,-0.04881 -0.108977,0.0074 -0.206999,0.06819 -0.311247,0.100788 -0.365961,0.114449 -0.312601,0.0968 -0.661792,0.187637 -0.561562,-0.02184 -0.35125,0.843793 -0.907745,0.833581 -0.149192,-0.0025 -0.249559,-0.168701 -0.389219,-0.221231 -0.43995,-0.165479 -0.433679,-0.08575 -0.855768,0.06276 -0.158315,0.01291 -0.319608,0.0049 -0.474792,0.03867 -0.139386,0.03042 -0.299339,0.05104 -0.39999,0.152136 -0.188192,0.189027 -0.311644,0.909538 -0.803159,0.811396 -2.25517,-0.45029 0.609761,-0.524467 -1.156873,-0.412037 -0.582495,-0.132526 -0.912583,1.26603 -1.20441,1.256394 -0.254358,-0.0084 -0.335059,-0.385153 -0.524875,-0.554663 -0.530547,-0.473797 -0.369681,-0.400811 -0.926763,-0.289062 -0.383042,0.04657 -0.750137,0.146357 -1.135956,0.171152 -0.115195,0.0074 -0.23268,-0.01003 -0.346109,0.01141 -0.145062,0.02743 -0.279378,0.0963 -0.422178,0.133754 -0.13516,0.03542 -0.273279,0.05674 -0.410137,0.08494 -0.34814,0.05449 -0.695574,0.127424 -1.051643,0.10269 -0.918703,-0.06384 -0.193551,-0.161634 -1.082705,-0.118538 -1.177397,0.05707 0.155175,0.08768 -0.821538,0.04945 -0.08152,0.0031 -0.04735,0.002 -0.09572,0.0031 -0.04548,-0.150036 -0.09501,-0.299194 -0.09889,-0.454508 -0.0059,-0.235337 0.131877,-0.460081 0.124876,-0.695392 -0.0065,-0.21795 -0.109415,-0.422217 -0.164178,-0.633267 l 0.0014,-0.680813 c 0.0034,-0.14574 0.03813,-1.17564 -0.0083,-1.324222 -0.06725,-0.215565 -0.215149,-0.400933 -0.36132,-0.573047 -0.156499,-0.184261 -0.467461,-0.255028 -0.538181,-0.486205 -0.132187,-0.432074 0.489811,-0.873401 0.292861,-1.323586 -0.246272,-0.812212 -0.159414,-0.397285 -0.261802,-1.243083 -0.04269,-0.172201 -0.15252,-0.322231 -0.202215,-0.492543 -0.136314,-0.467175 -0.0447,-0.952117 -0.415843,-1.340071 -0.03719,-0.04937 -0.487899,-0.629188 -0.527407,-0.7461 -0.04068,-0.120317 0.02807,-0.2642 -0.02473,-0.379707 -0.05046,-0.110408 -0.190238,-0.154395 -0.263706,-0.251026 -0.05875,-0.07729 -0.08408,-0.17492 -0.126142,-0.262438 -0.07419,-0.08108 -0.14832,-0.162334 -0.222504,-0.243418 -0.165154,-0.103957 -0.427727,-0.128953 -0.495709,-0.311878 -0.13596,-0.365871 0.572951,-0.498112 0.857034,-0.836753 0.124311,-0.148183 0.134454,-0.36281 0.195243,-0.546423 0.260526,-0.786962 0.252567,-0.429338 -0.143895,-1.231672 -0.04097,-0.05713 -0.207925,-0.279843 -0.36703,-0.507121 -0.127394,0.104316 -0.172997,0.334455 -0.418882,0.236203 -0.03703,-0.185324 0.131157,-0.302534 0.185607,-0.353476 0.03229,-0.0302 0.07624,-0.04146 0.121073,-0.05071 -0.148614,-0.225149 -0.280639,-0.447913 -0.287788,-0.557835 -0.02679,-0.411432 0.709828,-1.014632 0.79808,-1.243715 0.06954,-0.180523 -0.05918,-0.382236 -0.07606,-0.574951 -0.01285,-0.146805 -0.009,-0.294527 -0.0133,-0.441832 -0.539747,-0.568424 -1.19225,-1.005834 -2.029756,-1.034528 z m 1.608844,3.852861 c 0.04279,0.0648 -0.173256,0.222978 0.112202,0.167985 0.06294,-0.195929 0.0019,-0.22948 -0.112199,-0.167982 z m 19.562862,25.547536 c -0.05854,0.03435 -0.117,0.0691 -0.173054,0.11093 0.07401,-0.02389 0.152172,-0.05857 0.218064,-0.0729 0.01718,-0.0039 -0.02375,-0.02729 -0.0393,-0.03553 -0.0062,-0.0034 3.14e-4,4.9e-4 -0.0057,-0.0025 z m -69.293136,-6.92792 c -0.633339,-15.023566 -0.316669,-7.511783 0,0 z m 0.08937,-0.273846 c -0.0062,-0.03961 -0.01524,-0.06137 -0.02282,-0.09255 -0.02134,-0.03188 -0.04423,-0.06329 -0.06022,-0.09635 -0.02261,0.03542 -0.04522,0.07043 -0.06782,0.105861 z m 47.6308,-19.080462 c 0.1675,-0.0026 0.299947,0.06667 0.294762,0.295396 -0.005,0.213939 -0.487594,0.58883 -0.71377,0.762585 -0.138501,-0.09041 -0.271997,-0.190317 -0.39809,-0.299836 0.03935,-0.08344 0.0927,-0.161643 0.117903,-0.250391 0.02709,-0.09523 -0.04352,-0.236174 0.03675,-0.29413 0.0055,-0.004 0.383258,-0.209275 0.66243,-0.213624 z m 0.01649,4.122267 c -0.01614,0.100603 -0.06907,0.188055 -0.138193,0.270041 0.01531,-0.09067 0.03886,-0.178646 0.104592,-0.251025 0.0089,-0.0097 0.0236,-0.01096 0.03361,-0.01902 z m -0.380343,0.847528 c -0.01173,0.188191 1.47e-4,-0.04887 0.117903,0.764483 0.02277,0.157139 -0.0368,0.325825 0.01458,0.476063 0.04642,0.135732 0.203898,0.209037 0.264344,0.339136 0.131362,0.282756 0.06412,0.460434 0.0209,0.742301 -0.0044,0.127044 -0.03435,0.256362 -0.01266,0.381608 0.02768,0.159907 0.305492,0.723417 0.34104,0.847528 0.04632,0.161685 0.03219,0.336778 0.07924,0.498249 0.423051,1.451784 0.02989,-0.532457 0.312513,1.080168 -0.02537,0.48686 0.776849,0.570447 0.824708,0.999665 0.02615,0.234678 -0.220453,0.419202 -0.306811,0.638973 -0.07137,0.181626 -0.158683,0.366591 -0.164816,0.561638 -0.0054,0.172859 0.08913,0.333828 0.131853,0.501416 0.04455,0.174684 0.08601,0.35052 0.129316,0.525505 0.02792,0.19012 0.05577,0.37976 0.08368,0.569879 -0.02581,0.218463 -0.09858,0.436505 -0.07733,0.655454 0.01084,0.11185 0.05703,0.216598 0.102693,0.321391 -0.201332,-0.03808 -0.408046,-0.04744 -0.611085,-0.07733 -0.462257,-0.136295 -0.93776,-0.221794 -1.42057,-0.158479 -0.914836,0.11998 0.176248,0.05388 -0.762586,0.09318 -0.128442,-0.02831 -0.680206,-0.15622 -0.806961,-0.159108 -0.242754,-0.0055 -0.589928,0.100786 -0.828507,0.129318 -0.744376,0.08902 -0.05662,-0.07851 -0.773998,0.129316 -0.504453,0.211203 -0.817546,-0.168231 -1.286819,-0.220599 -0.516297,-0.01134 -0.268916,0.0082 -0.742932,-0.05135 -0.759424,0.07715 -0.08327,-0.03746 -0.705534,0.184466 -0.613447,0.218797 0.140095,-0.161694 -0.604743,0.192706 -0.102567,0.04883 -0.188276,0.132702 -0.296032,0.168618 -0.06593,0.02198 -0.134737,0.03214 -0.204118,0.03994 0.06499,-0.07242 0.200164,-0.09652 0.287792,-0.152769 0.113508,-0.07286 0.236155,-0.132137 0.341675,-0.216162 0.284524,-0.226581 0.298207,-0.302514 0.482397,-0.599037 0.07381,-0.114744 0.146642,-0.229972 0.221232,-0.34421 0.07015,-0.107435 0.126471,-0.225996 0.212991,-0.320754 0.223166,-0.244412 0.549785,-0.365962 0.663062,-0.713775 0.344191,-1.056848 -0.387074,-0.221001 0.404433,-0.947683 0.204773,-0.265407 0.510243,-0.426625 0.733423,-0.671935 0.100196,-0.110134 0.175631,-0.240051 0.257362,-0.364496 0.07943,-0.120934 0.17675,-0.234671 0.225669,-0.370834 0.143306,-0.398836 0.04928,-0.626049 -0.0133,-1.038332 0.193898,-0.03375 0.398174,-0.03089 0.581925,-0.101424 0.608986,-0.233685 0.282611,-0.346992 0.215527,-0.905212 -0.02179,-0.181217 -0.123756,-0.412993 -4.91e-4,-0.547692 0.799539,-0.219324 0.532795,0.0038 0.908379,-0.510926 0.724175,-0.818168 -0.120396,0.21158 0.401261,-0.666863 0.625575,-1.053421 -0.154007,0.555865 0.441195,-0.513463 0.115023,-0.20665 0.134228,-0.519897 0.166087,-0.735959 0.06721,-0.04501 0.485396,-0.326936 0.652283,-0.452605 z m 23.437907,8.520915 c -0.150715,0.32272 -0.327793,0.624349 -0.54959,0.902676 -0.02145,0.02688 -0.04014,0.05619 -0.05959,0.08494 0.102521,-0.231852 0.241253,-0.509177 0.408234,-0.875421 0.03184,-0.06983 0.133977,-0.0747 0.200949,-0.112199 z m -5.354574,3.613878 c 0.159061,-0.0027 0.317401,0.09652 0.462747,0.195874 -0.01364,0.0056 -0.02791,0.01027 -0.04121,0.01648 -0.08762,0.07134 -0.179768,0.137298 -0.263068,0.213628 -0.07301,0.06688 -0.120455,0.16296 -0.204753,0.214893 -0.09572,0.05896 -0.220526,0.05504 -0.31949,0.108395 -0.388253,0.20934 -0.542347,0.649895 -0.782865,0.990792 -0.241855,0.21367 -0.492976,0.473193 -0.808227,0.583821 -0.192932,0.0677 -0.414229,0.02565 -0.605374,0.09826 -0.168403,0.06396 -0.291002,0.213732 -0.448168,0.301739 -0.806246,0.45144 -0.329377,-0.0071 -0.879861,0.659257 -0.70737,0.900071 -0.03518,0.007 -0.630732,0.903943 -0.103993,0.156629 -0.219246,0.305666 -0.328995,0.458312 -0.11358,0.177283 -0.22746,0.354561 -0.34104,0.531843 -0.115347,0.178739 -0.252366,0.344688 -0.34738,0.535015 -0.134483,0.269393 -0.225345,0.558107 -0.337866,0.837386 -0.02478,0.289249 -0.112231,0.580008 -0.07417,0.867813 0.09263,0.700464 0.678033,1.405772 1.271607,1.759079 0.195302,0.116245 0.608618,0.212171 0.871617,0.275747 -0.01595,0.01516 -0.03548,0.02508 -0.05071,0.04122 -0.289053,0.170459 -0.592607,0.315712 -0.875419,0.496347 -0.133414,0.08521 -0.252028,0.192289 -0.37971,0.28589 -0.14152,0.103747 -0.294069,0.192651 -0.427885,0.306177 -0.353901,0.300222 -0.403262,0.409686 -0.667498,0.770186 -0.450558,0.183579 -0.496504,0.140822 -0.820268,0.507123 -0.103767,0.117398 -0.139066,0.297518 -0.268775,0.385411 -0.125793,0.08525 -0.306169,0.03646 -0.444999,0.09826 -0.260492,0.115911 -0.431073,0.387585 -0.699195,0.493178 -0.321527,0.2041 -0.397674,0.205896 -0.616787,0.554663 -0.052,0.08277 -0.06396,0.184944 -0.100156,0.275747 -0.120141,0.30137 -0.312027,0.499287 -0.599673,0.656723 -0.09072,0.02036 -0.193638,0.01173 -0.272578,0.06085 -0.08118,0.05053 -0.122456,0.14699 -0.18193,0.221866 -0.229433,0.288862 -0.479851,0.576582 -0.797448,0.770824 -0.05563,0.06628 -0.419439,0.502294 -0.467819,0.547696 -0.08099,0.076 -0.183766,0.125558 -0.268141,0.197775 -0.279653,0.239378 -0.476437,0.50883 -0.862109,0.58953 -0.527745,0.711953 -0.902527,1.153867 -1.643181,1.775819 -0.123741,0.103909 -0.157138,0.570809 -0.270822,0.685641 -0.341643,0.345052 -0.26387,0.485593 -0.58443,0.852394 -0.997935,1.695536 -0.528138,0.692948 -1.497605,1.972654 -0.364489,0.481132 -0.280123,0.389632 -0.364489,0.481132 -0.05556,0.06025 -0.128624,0.104886 -0.176862,0.17115 -0.05956,0.08183 -0.09512,0.178771 -0.142628,0.268143 -0.06026,0.07546 -0.134547,0.14147 -0.18066,0.226301 -0.102992,0.189487 -0.01001,0.308907 -0.231376,0.44183 -3.58e-4,2.15e-4 -9.53e-4,-2.12e-4 -0.0014,0 0.0062,-0.01325 0.01683,-0.02439 0.02218,-0.03803 0.153752,-0.391446 0.01752,-0.317124 0.08431,-0.751172 0.01914,-0.124364 0.08202,-0.238225 0.110931,-0.360692 0.02179,-0.09224 0.380538,-1.030361 0.393981,-1.124187 0.209747,-0.220753 0.700957,-0.61403 0.626777,-0.956538 -0.03955,-0.182465 0.135926,-0.516514 -0.148692,-0.998917 0.01123,-0.301483 0.597322,-0.3642 0.583186,-0.692216 0.239319,-0.365338 0.369926,-0.43914 0.362595,-0.888732 -0.0025,-0.153899 0.910921,-1.489826 0.899612,-1.643327 -0.01158,-0.156921 0.03548,-0.314648 0.02473,-0.471623 -0.03023,-0.443041 -0.138159,-0.502922 -0.375902,-0.901411 -0.195224,-0.156759 -0.441771,-0.265516 -0.585728,-0.470356 -0.354044,-0.503786 1.281473,-1.094377 1.49411,-1.236112 0.07752,-0.05167 0.116706,-0.145341 0.174954,-0.218058 -0.0105,-0.07397 -0.01688,-0.148635 -0.0317,-0.221867 -0.01481,-0.07339 -0.04843,-0.143065 -0.05705,-0.21743 -0.01492,-0.128051 0.02453,-0.344702 0.03297,-0.467183 0.04195,-0.608156 -0.0364,0.0133 0.06782,-0.682719 0.0039,-0.33023 -0.01138,-0.426235 0.06465,-0.764484 0.0367,-0.163265 0.134129,-0.314535 0.140096,-0.481764 0.0064,-0.179262 -0.107476,-0.3487 -0.103964,-0.52804 0.01025,-0.524219 0.19988,-0.654422 0.490009,-1.066857 0.05181,-0.691348 0.110106,-0.44448 -0.237716,-1.186666 -0.125243,-0.267245 -0.346271,-0.497482 -0.408233,-0.78604 -0.292341,-1.361408 0.444568,-0.123297 0.67194,-1.434521 0.04913,-0.283323 -0.21802,-0.532019 -0.327097,-0.798085 -0.222676,-0.27373 -0.338488,-0.535275 -0.298323,-0.885852 0.062,-0.541168 -0.0481,-0.507789 0.348977,-0.975036 0.278294,-0.20769 0.363404,-0.318528 0.36831,-0.317194 0.667145,0.182808 0.05503,0.08914 0.720152,0.09946 0.184683,-0.01703 0.369047,-0.03801 0.554035,-0.05135 0.165533,-0.01192 0.33267,-0.0015 0.496976,-0.02472 0.184163,-0.02629 0.367349,-0.06692 0.544526,-0.123611 0.18539,-0.05932 0.353774,-0.164704 0.539448,-0.223134 0.373297,-0.11746 0.510243,-0.09254 0.887461,-0.09635 l 0.419012,0.02979 c 0.111888,0.02777 0.221131,0.07282 0.335972,0.08304 0.132741,0.01182 0.266149,-0.01348 0.399352,-0.01775 0.452942,-0.01447 0.902231,0.02738 1.354653,-0.0089 0.643018,-0.01835 0.435641,0.108681 0.87225,-0.49698 0.155684,-0.215957 0.180886,-0.596842 0.437393,-0.668131 0.236445,-0.06571 0.420706,0.25258 0.636439,0.369564 0.819213,0.444242 0.470882,0.370032 1.284919,0.296033 0.539943,-0.549368 -0.637215,0.435742 0.768291,-0.920427 0.301222,-0.290659 0.831829,0.378677 0.924227,0.416475 0.141716,0.05796 0.308397,0.01017 0.458949,-0.01775 0.140317,-0.02601 0.269211,-0.09514 0.403792,-0.142627 0.459611,-0.01218 0.388974,0.05953 0.770191,-0.241517 0.137481,-0.108561 0.220599,-0.29441 0.383512,-0.35879 0.04023,-0.0159 0.08146,-0.0234 0.122344,-0.02408 z m -64.413364,1.53848 c 0.0602,0.96848 0.08394,0.996998 -0.869085,0.47416 0.160593,-0.247921 0.219938,-0.258383 0.652284,-0.176226 0.04274,-0.101724 0.176512,-0.242566 0.216801,-0.297934 z m -0.216794,0.297934 c -0.0091,0.01481 -0.0085,0.01187 -0.01839,0.0279 0.01114,1.17e-4 0.01226,-0.0186 0.01839,-0.0279 z m -0.01839,0.0279 c -1.160746,-14.766626 -0.580372,-7.383313 0,0 z m 62.242245,3.857293 c 0.078,0.0069 0.141093,0.06842 0.206019,0.112202 0.170909,0.115245 0.3018,0.215601 0.375902,0.390483 -0.09554,-0.02294 -0.188516,-0.05649 -0.277013,-0.10713 -0.380309,-0.2176 0.06167,-0.07555 -0.327096,-0.177492 -0.09075,-0.0039 -0.05064,-0.224457 0.02218,-0.218063 z m 0.618687,0.862107 c -0.01497,0.06008 -0.03508,0.12058 -0.045,0.180662 -0.04529,0.07598 -0.05753,0.186053 -0.135655,0.227573 -0.04382,0.0233 -0.02875,-0.10095 -0.01394,-0.148336 0.02022,-0.06473 0.07161,-0.114779 0.11283,-0.168617 0.02542,-0.03319 0.05465,-0.06082 0.08177,-0.09128 z M 19.032875,70.020703 c 0.02943,3.53e-4 0.06955,0.03243 0.122343,0.118541 0.01363,0.02551 0.01063,0.0293 0.01268,0.007 0.0103,0.01079 0.02076,0.02154 0.03106,0.03234 -0.02158,0.0044 -0.04265,0.0079 -0.06593,0.01776 -0.05406,0.02286 -0.08246,0.09871 -0.140725,0.105862 -0.04082,0.0051 -0.04771,-0.282514 0.04057,-0.281453 z m 0.264337,0.344211 c 0.05771,0.159198 0.08442,0.304686 0.02662,0.478594 -0.02154,-0.04288 -0.05098,-0.08266 -0.06466,-0.128683 -0.03839,-0.129228 0.01659,-0.08567 -0.0012,-0.205385 -0.0016,-0.01084 -0.0075,-0.02051 -0.01268,-0.03042 -0.02428,0.09665 -0.09154,0.143217 -0.07037,0.04058 0.0057,-0.02772 0.04072,-0.03518 0.06656,-0.05071 -0.0062,-0.01148 -0.01252,-0.02286 -0.01458,-0.03553 -0.0019,-0.01182 0.06043,-0.01182 0.02979,0.02026 -4.23e-4,0.0044 -0.0031,0.0044 -0.0038,0.0083 0.0015,-0.0014 0.0043,-0.0014 0.0057,-0.003 0.0221,-0.02483 0.02851,-0.0607 0.03867,-0.09381 z m -0.04437,0.09699 c -0.0032,0.003 -0.0075,0.005 -0.0114,0.007 0.0017,0.0034 0.0021,0.0069 0.0038,0.01016 0.0019,-0.0076 0.0064,-0.0089 0.0076,-0.01712 z" sodipodi:nodetypes="csccccsscscscssccccscscssscsscscsccccccsccccscccscssccccscscccccscscccsccsccccccccccccccscsccscccccccccscccccccccsccscccccccscccccscccccccsccccccssccccccsccsssccssccscscscssccssscsscssscssccsscccscscccssssccsscccsscsccscscsccccccsccccccccccscscsscsccsscsccccsscscscssccscccscccccscscsscssscsscssccsscssscscssscsscssccsssccccccccssscsccssccccccscssscssccscscsssccssccsscssccsccsccccsccscsscscsscsscsssccccccccccscscscsssscssccsscssscscscccsscsssscssscsccssscscssscsssccccccccssscssscccccccsccccsscccssccscsscssscssscsscscccsccsccssccsccscccscccscccssccscccscccsccccsccsscccsccscccccccccccccsccccssscccccccsscsscccssccccccscsscccccscsccssscssccccccsscccsccssscccssscssccsccscssccssccssccsscsscsccsccssscssccssccccccccsscccccscccssscscccccsccccccssscssscsscccccccccccsscccssscccscsscccccsscccscscccccccccccc"/>
    </g>
    <g inkscape:groupmode="layer" id="layer3" inkscape:label="Layer 2">
      <g id="g1631" transform="matrix(2.4988549,0,0,2.4988549,-45.642944,-42.820004)" style="fill:#333333">
        <g id="g1541" style="font-size:40px;line-height:0;white-space:pre;shape-inside:url(#rect3465);fill:#333333" transform="matrix(0.26458333,0,0,0.26458333,0,-0.52940914)">
          <path d="m 207.69141,127.00884 v -15.07813 h 3.16406 q 2.27539,0 3.59375,0.44922 1.41601,0.43945 2.56836,1.49414 2.33398,2.12891 2.33398,5.5957 0,3.47657 -2.43164,5.625 -1.2207,1.07422 -2.55859,1.49414 -1.25,0.41993 -3.54492,0.41993 z m 2.27539,-2.13868 h 1.02539 q 1.5332,0 2.54883,-0.32226 1.01562,-0.3418 1.83593,-1.08399 1.67969,-1.5332 1.67969,-3.99414 0,-2.48046 -1.66016,-4.02343 -1.49414,-1.37696 -4.40429,-1.37696 h -1.02539 z" style="font-weight:500;font-size:20px;line-height:1.3;font-family:Futura;-inkscape-font-specification:'Futura, Medium';letter-spacing:5px;fill:#333333" id="path1256"/>
          <path d="m 229.49805,111.93071 v 15.07813 h -2.27539 v -15.07813 z" style="font-weight:500;font-size:20px;line-height:1.3;font-family:Futura;-inkscape-font-specification:'Futura, Medium';letter-spacing:5px;fill:#333333" id="path1258"/>
          <path d="m 245.875,119.15727 h 6.23047 v 0.49805 q 0,1.69922 -0.40039,3.00781 -0.39063,1.21094 -1.31836,2.26563 -2.09961,2.36328 -5.3418,2.36328 -3.16406,0 -5.41992,-2.28516 -2.25586,-2.29492 -2.25586,-5.50781 0,-3.28125 2.29492,-5.56641 2.29492,-2.29492 5.58594,-2.29492 1.76758,0 3.30078,0.72266 1.46484,0.72266 2.88086,2.34375 l -1.62109,1.55273 q -1.85547,-2.4707 -4.52149,-2.4707 -2.39258,0 -4.01367,1.65039 -1.62109,1.62109 -1.62109,4.0625 0,2.51953 1.80664,4.15039 1.68945,1.51367 3.66211,1.51367 1.67968,0 3.01757,-1.13281 1.3379,-1.14258 1.49415,-2.73437 H 245.875 Z" style="font-weight:500;font-size:20px;line-height:1.3;font-family:Futura;-inkscape-font-specification:'Futura, Medium';letter-spacing:5px;fill:#333333" id="path1260"/>
          <path d="m 262.23242,111.93071 v 15.07813 h -2.27539 v -15.07813 z" style="font-weight:500;font-size:20px;line-height:1.3;font-family:Futura;-inkscape-font-specification:'Futura, Medium';letter-spacing:5px;fill:#333333" id="path1262"/>
          <path d="m 275.01562,114.06938 v 12.93946 h -2.27539 v -12.93946 h -3.46679 v -2.13867 h 9.19922 v 2.13867 z" style="font-weight:500;font-size:20px;line-height:1.3;font-family:Futura;-inkscape-font-specification:'Futura, Medium';letter-spacing:5px;fill:#333333" id="path1264"/>
          <path d="m 293.56055,123.34673 h -6.45508 l -1.67969,3.66211 h -2.45117 l 7.46094,-16.02539 7.19726,16.02539 h -2.49023 z m -0.92774,-2.13867 -2.23633,-5.12696 -2.34375,5.12696 z" style="font-weight:500;font-size:20px;line-height:1.3;font-family:Futura;-inkscape-font-specification:'Futura, Medium';letter-spacing:5px;fill:#333333" id="path1266"/>
          <path d="m 306.80273,111.93071 v 12.93945 h 4.4336 v 2.13868 h -6.70899 v -15.07813 z" style="font-weight:500;font-size:20px;line-height:1.3;font-family:Futura;-inkscape-font-specification:'Futura, Medium';letter-spacing:5px;fill:#333333" id="path1268"/>
          <path d="m 340.70898,112.74126 v 2.69531 q -1.97265,-1.65039 -4.08203,-1.65039 -2.32422,0 -3.91601,1.66992 -1.60157,1.66016 -1.60157,4.0625 0,2.37305 1.60157,4.00391 1.60156,1.63086 3.92578,1.63086 1.20117,0 2.04101,-0.39063 0.46875,-0.19531 0.9668,-0.52734 0.50781,-0.33203 1.06445,-0.80078 v 2.74414 q -1.95312,1.10351 -4.10156,1.10351 -3.23242,0 -5.51758,-2.25586 -2.27539,-2.27539 -2.27539,-5.48828 0,-2.88086 1.9043,-5.13672 2.34375,-2.76367 6.06445,-2.76367 2.03125,0 3.92578,1.10352 z" style="font-weight:500;font-size:20px;line-height:1.3;font-family:Futura;-inkscape-font-specification:'Futura, Medium';letter-spacing:5px;fill:#333333" id="path1270"/>
          <path d="m 347.75,119.40141 q 0,-3.18359 2.33398,-5.46875 2.32422,-2.28515 5.58594,-2.28515 3.22266,0 5.52735,2.30469 2.31445,2.30468 2.31445,5.53711 0,3.25195 -2.32422,5.51757 -2.33398,2.27539 -5.63477,2.27539 -2.91992,0 -5.24414,-2.02148 -2.55859,-2.23633 -2.55859,-5.85938 z m 2.29492,0.0293 q 0,2.5 1.67969,4.11133 1.66992,1.61133 3.85742,1.61133 2.37305,0 4.00391,-1.64063 1.63086,-1.66015 1.63086,-4.04297 0,-2.41211 -1.61133,-4.04296 -1.60156,-1.64063 -3.96485,-1.64063 -2.35351,0 -3.9746,1.64063 -1.6211,1.62109 -1.6211,4.0039 z" style="font-weight:500;font-size:20px;line-height:1.3;font-family:Futura;-inkscape-font-specification:'Futura, Medium';letter-spacing:5px;fill:#333333" id="path1272"/>
          <path d="m 376.50977,120.58306 4.66796,6.42578 h -2.7832 l -4.30664,-6.17188 h -0.41016 v 6.17188 h -2.27539 v -15.07813 h 2.66602 q 2.98828,0 4.31641,1.12305 1.46484,1.25 1.46484,3.30078 0,1.60156 -0.91797,2.75391 -0.91797,1.15234 -2.42187,1.47461 z m -2.83204,-1.72852 h 0.72266 q 3.23242,0 3.23242,-2.4707 0,-2.31446 -3.14453,-2.31446 h -0.81055 z" style="font-weight:500;font-size:20px;line-height:1.3;font-family:Futura;-inkscape-font-specification:'Futura, Medium';letter-spacing:5px;fill:#333333" id="path1274"/>
          <path d="m 390.70898,120.88579 v 6.12305 h -2.27539 v -15.07813 h 2.57813 q 1.89453,0 2.86133,0.26367 0.97656,0.26368 1.71875,0.9961 1.29882,1.26953 1.29882,3.20312 0,2.07031 -1.38671,3.28125 -1.38672,1.21094 -3.74024,1.21094 z m 0,-2.10938 h 0.84961 q 3.13477,0 3.13477,-2.4121 0,-2.33399 -3.23242,-2.33399 h -0.75196 z" style="font-weight:500;font-size:20px;line-height:1.3;font-family:Futura;-inkscape-font-specification:'Futura, Medium';letter-spacing:5px;fill:#333333" id="path1276"/>
          <path d="m 406.5293,111.93071 v 9.08203 q 0,1.94336 0.63476,2.8418 0.94727,1.29883 2.66602,1.29883 1.72851,0 2.67578,-1.29883 0.63476,-0.86914 0.63476,-2.8418 v -9.08203 h 2.2754 v 9.70703 q 0,2.38282 -1.48438,3.92578 -1.66992,1.71875 -4.10156,1.71875 -2.43164,0 -4.0918,-1.71875 -1.48437,-1.54296 -1.48437,-3.92578 v -9.70703 z" style="font-weight:500;font-size:20px;line-height:1.3;font-family:Futura;-inkscape-font-specification:'Futura, Medium';letter-spacing:5px;fill:#333333" id="path1278"/>
          <path d="m 432.54492,114.17681 -1.8457,1.09375 q -0.51758,-0.89844 -0.98633,-1.17188 -0.48828,-0.3125 -1.25977,-0.3125 -0.94726,0 -1.57226,0.53711 -0.625,0.52734 -0.625,1.32812 0,1.10352 1.64062,1.77735 l 1.50391,0.61523 q 1.83594,0.74219 2.68555,1.81641 0.84961,1.06445 0.84961,2.61719 0,2.08007 -1.38672,3.4375 -1.39649,1.36718 -3.4668,1.36718 -1.96289,0 -3.24219,-1.16211 -1.25976,-1.1621 -1.57226,-3.27148 l 2.30469,-0.50781 q 0.15625,1.32812 0.54687,1.83594 0.70313,0.97656 2.05078,0.97656 1.06445,0 1.76758,-0.71289 0.70312,-0.71289 0.70312,-1.80664 0,-0.43946 -0.12695,-0.80078 -0.11719,-0.3711 -0.38086,-0.67383 -0.2539,-0.3125 -0.66406,-0.57617 -0.41016,-0.27344 -0.97656,-0.51758 l -1.45508,-0.60547 q -3.0957,-1.3086 -3.0957,-3.82813 0,-1.69922 1.29882,-2.84179 1.29883,-1.15235 3.23243,-1.15235 2.60742,0 4.07226,2.53907 z" style="font-weight:500;font-size:20px;line-height:1.3;font-family:Futura;-inkscape-font-specification:'Futura, Medium';letter-spacing:5px;fill:#333333" id="path1280"/>
          <path d="m 451.11914,119.40141 q 0,-3.18359 2.33398,-5.46875 2.32422,-2.28515 5.58594,-2.28515 3.22266,0 5.52735,2.30469 2.31445,2.30468 2.31445,5.53711 0,3.25195 -2.32422,5.51757 -2.33398,2.27539 -5.63477,2.27539 -2.91992,0 -5.24414,-2.02148 -2.55859,-2.23633 -2.55859,-5.85938 z m 2.29492,0.0293 q 0,2.5 1.67969,4.11133 1.66992,1.61133 3.85742,1.61133 2.37305,0 4.00391,-1.64063 1.63086,-1.66015 1.63086,-4.04297 0,-2.41211 -1.61133,-4.04296 -1.60156,-1.64063 -3.96484,-1.64063 -2.35352,0 -3.97461,1.64063 -1.6211,1.62109 -1.6211,4.0039 z" style="font-weight:500;font-size:20px;line-height:1.3;font-family:Futura;-inkscape-font-specification:'Futura, Medium';letter-spacing:5px;fill:#333333" id="path1282"/>
          <path d="m 482.29102,114.06938 h -5.25391 v 3.62305 h 5.06836 v 2.13867 h -5.06836 v 7.17774 h -2.27539 v -15.07813 h 7.5293 z" style="font-weight:500;font-size:20px;line-height:1.3;font-family:Futura;-inkscape-font-specification:'Futura, Medium';letter-spacing:5px;fill:#333333" id="path1284"/>
          <path d="m 207.20476,156.48934 3.75467,-22.1173 h 5.69066 l 4.42932,11.79198 4.4,-11.79198 h 5.69066 l 3.75466,22.1173 h -5.71999 l -1.90667,-12.73065 -5.22132,12.73065 h -2.288 l -4.95733,-12.73065 -1.90666,12.73065 z" style="font-weight:bold;font-size:29.3333px;font-family:Futura;-inkscape-font-specification:'Futura, Bold';fill:#333333" id="path1286"/>
          <path d="m 243.58264,145.43069 q 0,1.32 0.49866,2.43466 0.49867,1.11467 1.34934,1.936 0.85066,0.82133 1.96533,1.29067 1.144,0.44 2.40533,0.44 1.26133,0 2.376,-0.44 1.14399,-0.46934 1.99466,-1.29067 0.88,-0.82133 1.37866,-1.936 0.49867,-1.11466 0.49867,-2.43466 0,-1.32 -0.49867,-2.43466 -0.49866,-1.11467 -1.37866,-1.936 -0.85067,-0.82133 -1.99466,-1.26133 -1.11467,-0.46934 -2.376,-0.46934 -1.26133,0 -2.40533,0.46934 -1.11467,0.44 -1.96533,1.26133 -0.85067,0.82133 -1.34934,1.936 -0.49866,1.11466 -0.49866,2.43466 z m -6.01333,0 q 0,-2.464 0.90933,-4.576 0.90934,-2.14133 2.52267,-3.72532 1.61333,-1.584 3.84266,-2.464 2.25866,-0.90933 4.95733,-0.90933 2.66933,0 4.92799,0.90933 2.25867,0.88 3.872,2.464 1.64266,1.58399 2.55199,3.72532 0.90934,2.112 0.90934,4.576 0,2.464 -0.90934,4.60533 -0.90933,2.112 -2.55199,3.69599 -1.61333,1.584 -3.872,2.49333 -2.25866,0.88 -4.92799,0.88 -2.69867,0 -4.95733,-0.88 -2.22933,-0.90933 -3.84266,-2.49333 -1.61333,-1.58399 -2.52267,-3.69599 -0.90933,-2.14133 -0.90933,-4.60533 z" style="font-weight:bold;font-size:29.3333px;font-family:Futura;-inkscape-font-specification:'Futura, Bold';fill:#333333" id="path1288"/>
          <path d="m 277.86685,140.03336 q -0.93867,-0.76266 -1.87733,-1.11466 -0.93867,-0.38134 -1.81867,-0.38134 -1.11466,0 -1.81866,0.528 -0.704,0.528 -0.704,1.37867 0,0.58666 0.352,0.968 0.352,0.38133 0.90933,0.67466 0.58667,0.264 1.29067,0.46934 0.73333,0.20533 1.43733,0.44 2.816,0.93866 4.10666,2.52266 1.32,1.55466 1.32,4.07733 0,1.70133 -0.58667,3.07999 -0.55733,1.37867 -1.67199,2.376 -1.08534,0.968 -2.69867,1.496 -1.584,0.55733 -3.60799,0.55733 -4.19467,0 -7.77333,-2.49333 l 2.464,-4.63466 q 1.29066,1.144 2.552,1.70133 1.26133,0.55733 2.49333,0.55733 1.40799,0 2.08266,-0.64533 0.704,-0.64533 0.704,-1.46666 0,-0.49867 -0.176,-0.85067 -0.176,-0.38133 -0.58667,-0.67466 -0.41066,-0.32267 -1.08533,-0.58667 -0.64533,-0.264 -1.584,-0.58667 -1.11466,-0.352 -2.19999,-0.76266 -1.056,-0.44 -1.90667,-1.144 -0.82133,-0.704 -1.34933,-1.76 -0.49867,-1.08533 -0.49867,-2.728 0,-1.64266 0.528,-2.96266 0.55734,-1.34933 1.52533,-2.288 0.99734,-0.968 2.40534,-1.49599 1.43733,-0.528 3.19732,-0.528 1.64267,0 3.432,0.46933 1.78933,0.44 3.432,1.32 z" style="font-weight:bold;font-size:29.3333px;font-family:Futura;-inkscape-font-specification:'Futura, Bold';fill:#333333" id="path1290"/>
          <path d="m 297.27037,139.24136 h -6.83466 v 3.696 h 6.45332 v 4.86933 h -6.45332 v 3.81333 h 6.83466 v 4.86932 h -12.58399 v -22.1173 h 12.58399 z" style="font-weight:bold;font-size:29.3333px;font-family:Futura;-inkscape-font-specification:'Futura, Bold';fill:#333333" id="path1292"/>
          <path d="m 313.55951,140.03336 q -0.93866,-0.76266 -1.87733,-1.11466 -0.93866,-0.38134 -1.81866,-0.38134 -1.11467,0 -1.81867,0.528 -0.70399,0.528 -0.70399,1.37867 0,0.58666 0.35199,0.968 0.352,0.38133 0.90934,0.67466 0.58666,0.264 1.29066,0.46934 0.73333,0.20533 1.43733,0.44 2.816,0.93866 4.10667,2.52266 1.31999,1.55466 1.31999,4.07733 0,1.70133 -0.58666,3.07999 -0.55733,1.37867 -1.672,2.376 -1.08533,0.968 -2.69866,1.496 -1.584,0.55733 -3.608,0.55733 -4.19466,0 -7.77332,-2.49333 l 2.46399,-4.63466 q 1.29067,1.144 2.552,1.70133 1.26133,0.55733 2.49333,0.55733 1.408,0 2.08267,-0.64533 0.70399,-0.64533 0.70399,-1.46666 0,-0.49867 -0.176,-0.85067 -0.176,-0.38133 -0.58666,-0.67466 -0.41067,-0.32267 -1.08533,-0.58667 -0.64534,-0.264 -1.584,-0.58667 -1.11467,-0.352 -2.2,-0.76266 -1.056,-0.44 -1.90666,-1.144 -0.82134,-0.704 -1.34934,-1.76 -0.49866,-1.08533 -0.49866,-2.728 0,-1.64266 0.528,-2.96266 0.55733,-1.34933 1.52533,-2.288 0.99733,-0.968 2.40533,-1.49599 1.43733,-0.528 3.19733,-0.528 1.64266,0 3.432,0.46933 1.78933,0.44 3.43199,1.32 z" style="font-weight:bold;font-size:29.3333px;font-family:Futura;-inkscape-font-specification:'Futura, Bold';fill:#333333" id="path1294"/>
          <path d="m 338.12111,151.62002 h 9.26932 v 4.86932 h -18.91997 l 10.47198,-17.24798 h -8.71199 v -4.86932 h 18.30398 z" style="font-weight:bold;font-size:29.3333px;font-family:Futura;-inkscape-font-specification:'Futura, Bold';fill:#333333" id="path1296"/>
          <path d="m 363.34316,148.27602 -2.58133,-7.36266 -2.58133,7.36266 z m 1.52533,4.37066 h -8.21332 l -1.32,3.84266 h -6.13066 l 8.41866,-22.1173 h 6.27732 l 8.41866,22.1173 h -6.13066 z" style="font-weight:bold;font-size:29.3333px;font-family:Futura;-inkscape-font-specification:'Futura, Bold';fill:#333333" id="path1298"/>
          <path d="m 389.97964,141.76403 q -1.99466,-2.43467 -4.92799,-2.43467 -1.29067,0 -2.40533,0.46934 -1.08534,0.46933 -1.87733,1.29066 -0.792,0.792 -1.26134,1.90667 -0.44,1.11466 -0.44,2.40533 0,1.31999 0.44,2.43466 0.46934,1.11467 1.26134,1.936 0.82133,0.82133 1.90666,1.29066 1.08533,0.46934 2.34666,0.46934 2.75733,0 4.95733,-2.34667 v 6.80533 l -0.58666,0.20533 q -1.32,0.46933 -2.464,0.67467 -1.144,0.23466 -2.25867,0.23466 -2.28799,0 -4.39999,-0.85066 -2.08266,-0.88 -3.696,-2.43467 -1.58399,-1.584 -2.55199,-3.72533 -0.968,-2.17066 -0.968,-4.72266 0,-2.55199 0.93866,-4.66399 0.968,-2.14133 2.552,-3.66666 1.61333,-1.55467 3.72533,-2.40533 2.112,-0.88 4.42933,-0.88 1.32,0 2.58133,0.29333 1.29066,0.264 2.69866,0.85066 z" style="font-weight:bold;font-size:29.3333px;font-family:Futura;-inkscape-font-specification:'Futura, Bold';fill:#333333" id="path1300"/>
          <path d="m 399.40433,134.37204 v 12.02665 q 0,0.968 0.0587,1.99466 0.088,0.99733 0.44,1.81867 0.38133,0.82133 1.17333,1.34933 0.792,0.49867 2.22933,0.49867 1.43733,0 2.2,-0.49867 0.792,-0.528 1.17333,-1.34933 0.38134,-0.82134 0.44,-1.81867 0.088,-1.02666 0.088,-1.99466 v -12.02665 h 5.72 v 12.81865 q 0,5.16266 -2.376,7.53866 -2.34667,2.37599 -7.24533,2.37599 -4.89866,0 -7.27466,-2.37599 -2.37599,-2.376 -2.37599,-7.53866 v -12.81865 z" style="font-weight:bold;font-size:29.3333px;font-family:Futura;-inkscape-font-specification:'Futura, Bold';fill:#333333" id="path1302"/>
          <path d="m 425.93493,139.24136 v 17.24798 h -5.74933 v -17.24798 h -4.72266 v -4.86932 h 15.19465 v 4.86932 z" style="font-weight:bold;font-size:29.3333px;font-family:Futura;-inkscape-font-specification:'Futura, Bold';fill:#333333" id="path1304"/>
          <path d="m 437.98497,145.43069 q 0,1.32 0.49866,2.43466 0.49867,1.11467 1.34933,1.936 0.85067,0.82133 1.96534,1.29067 1.14399,0.44 2.40533,0.44 1.26133,0 2.37599,-0.44 1.144,-0.46934 1.99467,-1.29067 0.88,-0.82133 1.37866,-1.936 0.49867,-1.11466 0.49867,-2.43466 0,-1.32 -0.49867,-2.43466 -0.49866,-1.11467 -1.37866,-1.936 -0.85067,-0.82133 -1.99467,-1.26133 -1.11466,-0.46934 -2.37599,-0.46934 -1.26134,0 -2.40533,0.46934 -1.11467,0.44 -1.96534,1.26133 -0.85066,0.82133 -1.34933,1.936 -0.49866,1.11466 -0.49866,2.43466 z m -6.01333,0 q 0,-2.464 0.90933,-4.576 0.90933,-2.14133 2.52267,-3.72532 1.61333,-1.584 3.84266,-2.464 2.25866,-0.90933 4.95733,-0.90933 2.66933,0 4.92799,0.90933 2.25866,0.88 3.872,2.464 1.64266,1.58399 2.55199,3.72532 0.90934,2.112 0.90934,4.576 0,2.464 -0.90934,4.60533 -0.90933,2.112 -2.55199,3.69599 -1.61334,1.584 -3.872,2.49333 -2.25866,0.88 -4.92799,0.88 -2.69867,0 -4.95733,-0.88 -2.22933,-0.90933 -3.84266,-2.49333 -1.61334,-1.58399 -2.52267,-3.69599 -0.90933,-2.14133 -0.90933,-4.60533 z" style="font-weight:bold;font-size:29.3333px;font-family:Futura;-inkscape-font-specification:'Futura, Bold';fill:#333333" id="path1306"/>
          <path d="m 463.07592,143.26003 h -3.13866 l -0.792,-8.88799 h 4.72266 z" style="font-weight:bold;font-size:29.3333px;font-family:Futura;-inkscape-font-specification:'Futura, Bold';fill:#333333" id="path1308"/>
          <path d="m 479.70515,140.03336 q -0.93866,-0.76266 -1.87733,-1.11466 -0.93866,-0.38134 -1.81866,-0.38134 -1.11467,0 -1.81867,0.528 -0.704,0.528 -0.704,1.37867 0,0.58666 0.352,0.968 0.352,0.38133 0.90933,0.67466 0.58667,0.264 1.29067,0.46934 0.73333,0.20533 1.43733,0.44 2.816,0.93866 4.10666,2.52266 1.32,1.55466 1.32,4.07733 0,1.70133 -0.58666,3.07999 -0.55734,1.37867 -1.672,2.376 -1.08533,0.968 -2.69867,1.496 -1.58399,0.55733 -3.60799,0.55733 -4.19466,0 -7.77333,-2.49333 l 2.464,-4.63466 q 1.29067,1.144 2.552,1.70133 1.26133,0.55733 2.49333,0.55733 1.408,0 2.08266,-0.64533 0.704,-0.64533 0.704,-1.46666 0,-0.49867 -0.176,-0.85067 -0.176,-0.38133 -0.58666,-0.67466 -0.41067,-0.32267 -1.08534,-0.58667 -0.64533,-0.264 -1.58399,-0.58667 -1.11467,-0.352 -2.2,-0.76266 -1.056,-0.44 -1.90667,-1.144 -0.82133,-0.704 -1.34933,-1.76 -0.49866,-1.08533 -0.49866,-2.728 0,-1.64266 0.528,-2.96266 0.55733,-1.34933 1.52533,-2.288 0.99733,-0.968 2.40533,-1.49599 1.43733,-0.528 3.19733,-0.528 1.64266,0 3.43199,0.46933 1.78933,0.44 3.432,1.32 z" style="font-weight:bold;font-size:29.3333px;font-family:Futura;-inkscape-font-specification:'Futura, Bold';fill:#333333" id="path1310"/>
          <path d="m 218.83398,164.22175 v 2.69531 q -1.97265,-1.65039 -4.08203,-1.65039 -2.32422,0 -3.91601,1.66992 -1.60157,1.66016 -1.60157,4.0625 0,2.37305 1.60157,4.00391 1.60156,1.63086 3.92578,1.63086 1.20117,0 2.04101,-0.39063 0.46875,-0.19531 0.9668,-0.52734 0.50781,-0.33203 1.06445,-0.80078 v 2.74414 q -1.95312,1.10351 -4.10156,1.10351 -3.23242,0 -5.51758,-2.25586 -2.27539,-2.27539 -2.27539,-5.48828 0,-2.88086 1.9043,-5.13672 2.34375,-2.76367 6.06445,-2.76367 2.03125,0 3.92578,1.10352 z" style="font-weight:500;font-size:20px;line-height:1;font-family:Futura;-inkscape-font-specification:'Futura, Medium';letter-spacing:6.55px;fill:#333333" id="path1312"/>
          <path d="m 227.425,170.8819 q 0,-3.18359 2.33398,-5.46875 2.32422,-2.28515 5.58594,-2.28515 3.22266,0 5.52734,2.30468 2.31446,2.30469 2.31446,5.53711 0,3.25196 -2.32422,5.51758 -2.33399,2.27539 -5.63477,2.27539 -2.91992,0 -5.24414,-2.02148 -2.55859,-2.23633 -2.55859,-5.85938 z m 2.29492,0.0293 q 0,2.5 1.67969,4.11133 1.66992,1.61133 3.85742,1.61133 2.37305,0 4.00391,-1.64063 1.63086,-1.66016 1.63086,-4.04297 0,-2.41211 -1.61133,-4.04297 -1.60156,-1.64062 -3.96485,-1.64062 -2.35351,0 -3.97461,1.64062 -1.62109,1.6211 -1.62109,4.00391 z" style="font-weight:500;font-size:20px;line-height:1;font-family:Futura;-inkscape-font-specification:'Futura, Medium';letter-spacing:6.55px;fill:#333333" id="path1314"/>
          <path d="m 257.73476,172.06354 4.66797,6.42578 h -2.7832 l -4.30664,-6.17187 h -0.41016 v 6.17187 h -2.27539 V 163.4112 h 2.66602 q 2.98828,0 4.3164,1.12305 1.46485,1.25 1.46485,3.30078 0,1.60156 -0.91797,2.7539 -0.91797,1.15235 -2.42188,1.47461 z m -2.83203,-1.72851 h 0.72266 q 3.23242,0 3.23242,-2.47071 0,-2.31445 -3.14453,-2.31445 h -0.81055 z" style="font-weight:500;font-size:20px;line-height:1;font-family:Futura;-inkscape-font-specification:'Futura, Medium';letter-spacing:6.55px;fill:#333333" id="path1316"/>
          <path d="m 276.31602,172.06354 4.66797,6.42578 h -2.78321 l -4.30664,-6.17187 h -0.41015 v 6.17187 H 271.2086 V 163.4112 h 2.66601 q 2.98828,0 4.31641,1.12305 1.46484,1.25 1.46484,3.30078 0,1.60156 -0.91797,2.7539 -0.91797,1.15235 -2.42187,1.47461 z m -2.83203,-1.72851 h 0.72265 q 3.23242,0 3.23242,-2.47071 0,-2.31445 -3.14453,-2.31445 h -0.81054 z" style="font-weight:500;font-size:20px;line-height:1;font-family:Futura;-inkscape-font-specification:'Futura, Medium';letter-spacing:6.55px;fill:#333333" id="path1318"/>
          <path d="m 298.11015,165.54987 h -6.04492 v 3.62305 h 5.86914 v 2.13867 h -5.86914 v 5.03906 h 6.04492 v 2.13867 h -8.32031 V 163.4112 h 8.32031 z" style="font-weight:500;font-size:20px;line-height:1;font-family:Futura;-inkscape-font-specification:'Futura, Medium';letter-spacing:6.55px;fill:#333333" id="path1320"/>
          <path d="m 316.19336,165.65729 -1.8457,1.09375 q -0.51758,-0.89843 -0.98633,-1.17187 -0.48828,-0.3125 -1.25977,-0.3125 -0.94726,0 -1.57226,0.53711 -0.625,0.52734 -0.625,1.32812 0,1.10352 1.64062,1.77735 l 1.50391,0.61523 q 1.83594,0.74219 2.68554,1.81641 0.84961,1.06445 0.84961,2.61718 0,2.08008 -1.38671,3.4375 -1.39649,1.36719 -3.4668,1.36719 -1.96289,0 -3.24219,-1.16211 -1.25976,-1.16211 -1.57226,-3.27148 l 2.30468,-0.50781 q 0.15625,1.32812 0.54688,1.83593 0.70312,0.97657 2.05078,0.97657 1.06445,0 1.76758,-0.71289 0.70312,-0.7129 0.70312,-1.80665 0,-0.43945 -0.12695,-0.80078 -0.11719,-0.37109 -0.38086,-0.67382 -0.25391,-0.3125 -0.66406,-0.57618 -0.41016,-0.27343 -0.97657,-0.51757 l -1.45507,-0.60547 q -3.09571,-1.3086 -3.09571,-3.82813 0,-1.69922 1.29883,-2.8418 1.29883,-1.15234 3.23242,-1.15234 2.60743,0 4.07227,2.53906 z" style="font-weight:500;font-size:20px;line-height:1;font-family:Futura;-inkscape-font-specification:'Futura, Medium';letter-spacing:6.55px;fill:#333333" id="path1322"/>
          <path d="m 328.17305,172.36628 v 6.12304 h -2.27539 V 163.4112 h 2.57812 q 1.89454,0 2.86133,0.26367 0.97656,0.26367 1.71875,0.9961 1.29883,1.26953 1.29883,3.20312 0,2.07031 -1.38672,3.28125 -1.38672,1.21094 -3.74023,1.21094 z m 0,-2.10938 h 0.84961 q 3.13476,0 3.13476,-2.41211 0,-2.33398 -3.23242,-2.33398 h -0.75195 z" style="font-weight:500;font-size:20px;line-height:1;font-family:Futura;-inkscape-font-specification:'Futura, Medium';letter-spacing:6.55px;fill:#333333" id="path1324"/>
          <path d="m 342.51602,170.8819 q 0,-3.18359 2.33399,-5.46875 2.32421,-2.28515 5.58593,-2.28515 3.22266,0 5.52735,2.30468 2.31445,2.30469 2.31445,5.53711 0,3.25196 -2.32422,5.51758 -2.33398,2.27539 -5.63476,2.27539 -2.91993,0 -5.24414,-2.02148 -2.5586,-2.23633 -2.5586,-5.85938 z m 2.29492,0.0293 q 0,2.5 1.67969,4.11133 1.66992,1.61133 3.85742,1.61133 2.37305,0 4.00391,-1.64063 1.63086,-1.66016 1.63086,-4.04297 0,-2.41211 -1.61133,-4.04297 -1.60156,-1.64062 -3.96484,-1.64062 -2.35352,0 -3.97461,1.64062 -1.6211,1.6211 -1.6211,4.00391 z" style="font-weight:500;font-size:20px;line-height:1;font-family:Futura;-inkscape-font-specification:'Futura, Medium';letter-spacing:6.55px;fill:#333333" id="path1326"/>
          <path d="m 367.70859,178.48932 v -16.10351 l 10.99609,11.50391 V 163.4112 h 2.27539 v 15.99609 l -10.99609,-11.47461 v 10.55664 z" style="font-weight:500;font-size:20px;line-height:1;font-family:Futura;-inkscape-font-specification:'Futura, Medium';letter-spacing:6.55px;fill:#333333" id="path1328"/>
          <path d="M 391.13359,178.48932 V 163.4112 h 3.16406 q 2.27539,0 3.59375,0.44922 1.41602,0.43945 2.56836,1.49414 2.33399,2.12891 2.33399,5.5957 0,3.47656 -2.43164,5.625 -1.22071,1.07422 -2.5586,1.49414 -1.25,0.41992 -3.54492,0.41992 z m 2.27539,-2.13867 h 1.02539 q 1.53321,0 2.54883,-0.32226 1.01563,-0.3418 1.83594,-1.08399 1.67969,-1.5332 1.67969,-3.99414 0,-2.48047 -1.66016,-4.02344 -1.49414,-1.37695 -4.4043,-1.37695 h -1.02539 z" style="font-weight:500;font-size:20px;line-height:1;font-family:Futura;-inkscape-font-specification:'Futura, Medium';letter-spacing:6.55px;fill:#333333" id="path1330"/>
          <path d="m 420.53516,165.54987 h -6.04493 v 3.62305 h 5.86914 v 2.13867 h -5.86914 v 5.03906 h 6.04493 v 2.13867 h -8.32032 V 163.4112 h 8.32032 z" style="font-weight:500;font-size:20px;line-height:1;font-family:Futura;-inkscape-font-specification:'Futura, Medium';letter-spacing:6.55px;fill:#333333" id="path1332"/>
          <path d="m 430.09297,178.48932 v -16.10351 l 10.9961,11.50391 V 163.4112 h 2.27539 v 15.99609 l -10.9961,-11.47461 v 10.55664 z" style="font-weight:500;font-size:20px;line-height:1;font-family:Futura;-inkscape-font-specification:'Futura, Medium';letter-spacing:6.55px;fill:#333333" id="path1334"/>
          <path d="m 464.80704,164.22175 v 2.69531 q -1.97266,-1.65039 -4.08203,-1.65039 -2.32422,0 -3.91602,1.66992 -1.60156,1.66016 -1.60156,4.0625 0,2.37305 1.60156,4.00391 1.60156,1.63086 3.92578,1.63086 1.20117,0 2.04102,-0.39063 0.46875,-0.19531 0.96679,-0.52734 0.50782,-0.33203 1.06446,-0.80078 v 2.74414 q -1.95313,1.10351 -4.10157,1.10351 -3.23242,0 -5.51757,-2.25586 -2.27539,-2.27539 -2.27539,-5.48828 0,-2.88086 1.90429,-5.13672 2.34375,-2.76367 6.06446,-2.76367 2.03125,0 3.92578,1.10352 z" style="font-weight:500;font-size:20px;line-height:1;font-family:Futura;-inkscape-font-specification:'Futura, Medium';letter-spacing:6.55px;fill:#333333" id="path1336"/>
          <path d="m 482.56796,165.54987 h -6.04492 v 3.62305 h 5.86914 v 2.13867 h -5.86914 v 5.03906 h 6.04492 v 2.13867 h -8.32031 V 163.4112 h 8.32031 z" style="font-weight:500;font-size:20px;line-height:1;font-family:Futura;-inkscape-font-specification:'Futura, Medium';letter-spacing:6.55px;fill:#333333" id="path1338"/>
        </g>
      </g>
    </g>
  </g>
  <metadata id="metadata1812">
    <rdf:RDF>
      <cc:Work rdf:about="">
        <dc:title>Zacuto's Correspondence Project</dc:title>
      </cc:Work>
    </rdf:RDF>
  </metadata>
</svg>